<svg xmlns="http://www.w3.org/2000/svg" xmlns:xlink="http://www.w3.org/1999/xlink" data-name="Layer 1" width="1118.03" height="826.45" viewBox="0 0 1118.03 826.45"><defs><linearGradient id="2c65cc85-6ec1-454a-a801-b7854259077c-180" x1="377.53" y1="611.1" x2="377.53" y2="84.18" gradientTransform="translate(256.63 -110.12) rotate(27.45)" gradientUnits="userSpaceOnUse"><stop offset="0" stop-color="gray" stop-opacity="0.25"/><stop offset="0.54" stop-color="gray" stop-opacity="0.12"/><stop offset="1" stop-color="gray" stop-opacity="0.1"/></linearGradient></defs><title>startled</title><ellipse cx="741.34" cy="764.2" rx="314.09" ry="31.67" fill="#dadaf9" opacity="0.1"/><path d="M690.57,153c-71.67-2.08-139.94-21.34-205.12-42.42S355.69,66.17,285.73,55c-45-7.18-96.45-8.2-132.71,11.89-34.88,19.32-46.16,52.69-52.22,83.64-4.56,23.29-7.24,47.81,5.25,69.61,8.68,15.14,24.08,27.86,34.73,42.36,37.07,50.46,10.87,112.67-29.3,161.93-18.84,23.11-40.69,45.16-55.23,69.76S35,547,47.71,572.07c12.61,24.87,42.65,43.55,75.2,56.69,66.1,26.69,144,34.33,220,38.65C511,677,680,672.84,848.63,668.69c62.39-1.53,125-3.09,186.43-11.12,34.08-4.46,69.27-11.54,94-28.63,31.42-21.7,39.2-58.43,18.15-85.64-35.3-45.63-132.92-57-157.6-105.93-13.58-26.95.37-57,20.11-82,42.34-53.62,113.32-100.67,117.06-162,2.57-42.1-31.55-84.26-84.31-104.18-55.3-20.88-132-18.25-172.79,16.31C827.68,141.14,753.86,154.83,690.57,153Z" transform="translate(-40.99 -36.78)" fill="#dadaf9" opacity="0.1"/><path d="M213.3,663c-7.92-3.53-1.22-41.88,16-101,0,0,0,0,0,0,11-37.93,26.38-84.41,45-135.71,1.34-3.68,2.7-7.37,4.06-11.1q2.3-6.27,4.66-12.64l.14-.35c.22-.61.45-1.21.67-1.81q8.94-24,18.69-49.11c.12-.34.25-.67.38-1l.33-.85c1.56-4,3.14-8,4.73-12.07.17-.42.33-.86.5-1.28.23-.59.46-1.16.68-1.74.08-.18.14-.37.22-.53.13-.35.27-.69.4-1,1.6-4,3.19-8.05,4.78-12q3.9-9.7,7.74-19.21.67-1.67,1.35-3.3,1.93-4.79,3.87-9.51c.5-1.2,1-2.41,1.48-3.6.38-.91.75-1.83,1.12-2.73q6.09-14.73,12.1-28.89a.17.17,0,0,0,0-.1c15.25-35.93,30-68.92,43.7-97.76.08-.15.14-.31.22-.46l1.45-3.06c35.16-73.71,62.82-119.2,72.17-115,9.62,4.28-2.36,60.14-28.61,142.26-.34,1.09-.69,2.16-1.05,3.25a5.8,5.8,0,0,1-.2.63q-2,6.38-4.21,13c-.08.26-.17.52-.26.78q-5,15.3-10.64,31.6c-.51,1.46-1,2.95-1.54,4.43-5.8,16.79-12,34.27-18.65,52.29h0c-.4,1.11-.81,2.21-1.22,3.33h0c-6.65,18.05-13.66,36.63-21,55.59h0c-.47,1.2-.94,2.41-1.4,3.62h0c-.1.26-.2.51-.31.77q-2.75,7.05-5.53,14.16c-.53,1.32-1,2.64-1.56,3.95-1.32,3.35-2.64,6.7-4,10-.11.3-.23.6-.35.89s-.19.47-.29.7c-.22.58-.45,1.15-.68,1.72-.62,1.55-1.23,3.1-1.85,4.63-1.07,2.68-2.14,5.33-3.21,8l-.33.8v0a.76.76,0,0,1,0,.11q-6.52,16.11-13,31.67h0q-2.18,5.25-4.35,10.43v0c-1.07,2.55-2.13,5.09-3.2,7.6-7.94,18.77-15.74,36.74-23.34,53.77l0,0C263,600,224.64,668.06,213.3,663Z" transform="translate(-40.99 -36.78)" fill="#dadaf9" opacity="0.5"/><path d="M232.07,591.61c-4.88-2.1,1.18-29.38,14.92-71.76l0,0c8.8-27.18,20.77-60.58,35-97.52l3.11-8q1.75-4.51,3.56-9.1a2.77,2.77,0,0,0,.1-.26l.52-1.3q6.81-17.33,14.21-35.4c.09-.25.19-.48.29-.72s.16-.41.25-.61c1.18-2.9,2.37-5.79,3.57-8.71l.39-.93.51-1.25c.06-.13.11-.27.16-.39s.21-.49.31-.73q1.82-4.38,3.61-8.69,2.94-7,5.83-13.87l1-2.38c1-2.31,1.94-4.59,2.91-6.87l1.11-2.6c.29-.66.56-1.32.84-2q4.57-10.63,9.07-20.88a.14.14,0,0,0,0-.07c11.4-26,22.36-49.86,32.42-70.77.06-.11.11-.23.17-.34l1.06-2.22c25.86-53.47,45.62-86.74,51.38-84.25,5.93,2.56-4.33,42.39-24.9,101.35l-.82,2.34c-.05.15-.1.3-.16.45q-1.6,4.58-3.29,9.31l-.2.56q-3.93,11-8.27,22.71c-.39,1.06-.78,2.13-1.19,3.19-4.48,12.07-9.27,24.66-14.33,37.64h0l-.93,2.39h0q-7.62,19.5-16,40.06h0c-.35.87-.7,1.74-1.06,2.61h0c-.08.19-.16.37-.23.56l-4.19,10.21-1.18,2.85c-1,2.42-2,4.84-3,7.23-.08.22-.17.43-.26.64s-.14.34-.22.51l-.51,1.23c-.47,1.12-.93,2.24-1.4,3.35L333.88,395l-.25.58h0l0,.08q-4.92,11.64-9.76,22.87h0q-1.63,3.8-3.27,7.54s0,0,0,0q-1.2,2.78-2.4,5.5c-5.94,13.56-11.75,26.57-17.39,38.89l0,0C266.66,545,239.06,594.63,232.07,591.61Z" transform="translate(-40.99 -36.78)" fill="#dadaf9" opacity="0.5"/><path d="M553.79,389.26c0-2.79-2.73-1.35-3.11-1.23h0a19,19,0,0,0-3.56-2.31c-6.09-3.17-15.29-5.1-22.62-6.23a.12.12,0,0,0-.08,0c-6.46-1-11.44-1.34-11.44-1.34l-3.81.05-1.42,0a4,4,0,0,1,2.08-1.57c1.06-.13-4.48-.54-7.11-.72,0,0,0,0,0,0h-.11l-1.22-.08c-5.78,1.36-16.61-6.07-16.61-6.07l-1.26-6.34c4.28-4.63,3.66-16.2,3.66-16.2s.36-3.88,4-9.22-.61-8.72-.61-8.72l6.29-6.71a9,9,0,0,1,1.14-6.83h0a6.13,6.13,0,0,1,1.41-1.48l0-.05.1-.09c4.11-3.15,7.58-14.09,7.58-14.09s-.8-1.95,3.7-7.24l0-.06c.6-.7,1.3-1.45,2.11-2.29l0,0c0-.07.12-.13.18-.2C520.3,283,517.46,279,517.46,279l-8.77-10.66c2.07-3.46-14.55-28.29-14.55-28.29s-2.12-5.11-.92-10a7,7,0,0,0,.1-3.54,4,4,0,0,0-.94-1.77,3.07,3.07,0,0,0-1-.71l-.6-.05.71-.52c.29-.19.57-.4.86-.6.62.24,1.24.45,1.87.64a38.25,38.25,0,0,0,36.06-6.86c.25-.19.49-.4.72-.61s.63-.54.94-.83c.14-.13.28-.25.4-.38s.47-.46.7-.7c.07.22.14.43.22.65a19.34,19.34,0,0,0,1.13,2.58,1.59,1.59,0,0,0,.13.22.41.41,0,0,0,0,.09c.07.15.16.29.24.43a12.68,12.68,0,0,0,2.06,2.6,6.48,6.48,0,0,0,.62.54,6.85,6.85,0,0,0,1,.71,1,1,0,0,0,.17.12,1.22,1.22,0,0,0,.19.12l0,0c.26-.46.51-.93.75-1.4a33.48,33.48,0,0,0,3.63-13.33,13.75,13.75,0,0,1,.14-1.69,3.88,3.88,0,0,1,.37-1.23,4.06,4.06,0,0,1,1.71-1.79,19.2,19.2,0,0,1,3.76-1.44l.31-.11.38-.13.74-.29.12-.06c.22-.09.42-.2.63-.3a1.32,1.32,0,0,1,.2-.12,4.79,4.79,0,0,0,.68-.46l.1-.08s0,0,0,0a4.19,4.19,0,0,0,.54-.49c.08-.08.13-.18.21-.26a2.88,2.88,0,0,0,.3-.39l.24-.35a2.43,2.43,0,0,1,.18-.32,9.88,9.88,0,0,0,1-5c-.14-2.48-.87-4.88-.84-7.37.09-5.95,4.38-11.63,4-17.54-.34-5.12-4.11-9.1-8-12.28s-8.21-6.15-10.34-10.7c-1.59-3.41-1.81-7.38-3.24-10.86-3-7.29-11.8-11.4-19.75-9.23-4.76,1.31-8.9,4.46-13.53,6.21-3.06,1.15-6.27,1.67-9.32,2.84a24.87,24.87,0,0,0-9.43,6.46c-.46.5-.89,1-1.31,1.56l-.39.53c-.29.4-.58.8-.84,1.22-.12.18-.23.35-.34.54a19.51,19.51,0,0,0-1,1.79c-.29.57-.54,1.15-.79,1.74-1.39,3.36-2.25,6.94-3.92,10.14a17.42,17.42,0,0,1-1.26,2.1l0,0c-.65.93-1.4,1.8-2.14,2.68-.2.24-.4.48-.6.7a2.78,2.78,0,0,1-.27.33c-.14.19-.3.37-.45.56s-.18.23-.26.34-.3.41-.43.62-.15.19-.22.3c-.2.31-.38.63-.56.95l0,.07a8,8,0,0,0-.9,3.48,5.42,5.42,0,0,0,.26,1.77,3.83,3.83,0,0,0,.17.43,3.48,3.48,0,0,0,.59.88c-.12.33-.26.67-.37,1-.26.76-.5,1.54-.72,2.31-.14.53-.25,1-.37,1.55,0,0,0,0,0,0a37.64,37.64,0,0,0-.89,6.16h0l-.64.33a31.33,31.33,0,0,1-3.47,1.47v0l-.12,0c-1,.22-7.9,1.66-10.32,1.24l-8.63-1.51s-2-.83-4.19-1.88a19.09,19.09,0,0,1-4.58-2.83c-1.65-1.78-13.06-9.12-15.46-9.11a4.18,4.18,0,0,1-2.52-1.4,27.09,27.09,0,0,1-2-2.79s-.23-.12-.59-.34c-.45-.63-.73-1.1-.73-1.1s-3.39-1.86-6.84-4l-1.47,3c-.08.15-.15.31-.23.47-13.92,28.7-29.14,61.47-45,97.06a.29.29,0,0,1,0,.1q-6.27,14-12.65,28.61l-1.17,2.7-1.56,3.56-4.07,9.4-1.42,3.27q-4.05,9.39-8.16,19-2.52,5.89-5.06,11.89c-.13.33-.28.67-.42,1-.08.17-.15.35-.23.53-.23.57-.48,1.14-.72,1.72-.18.41-.36.85-.54,1.26-1.68,4-3.35,8-5,11.92l-.76.39.41.45c-.14.33-.28.65-.41,1q-10.35,24.72-20,48.45l-.72,1.78-.15.35q-2.54,6.27-5,12.45-2.2,5.52-4.37,10.94c-20.11,50.52-37.12,96.13-49.77,133.21-.6.41-1.24.88-1.89,1.41.65-.49,1.28-1,1.86-1.35a14.78,14.78,0,0,1,1.56-.93,13.9,13.9,0,0,0,3.21-2.35c.43-.4.85-.81,1.26-1.24a64.68,64.68,0,0,0,6.36-8.42,8.32,8.32,0,0,1,1-1l.53-.48.08-.07c.29-.25.6-.53.95-.82l.06-.05.52-.43.06-.05.56-.47c1.71-1.4,3.8-3.05,5.79-4.61l.72-.55,2.43-1.88,1.2-.91,2.65-2,0,0h0s0,0,0,0h0l0,0a1.23,1.23,0,0,1,.08-.12c.24-.31.79-1,1.56-1.95a.13.13,0,0,1,.06-.05,4.57,4.57,0,0,1,.29-.36c1.06-1.24,2.44-2.79,4-4.33.19-.18.38-.38.59-.56l.57-.55,0,0,.93-.83a31.1,31.1,0,0,1,2.88-2.27,40.31,40.31,0,0,0,3.68-3l.25-.22c.17-.17.36-.35.56-.52a5,5,0,0,0,.41-.39l.43-.4.71-.67.45-.43,1.06-1,1.19-1.18.18-.18c.61-.62,1.23-1.25,1.86-1.87l.73-.74c.3-.31.6-.63.9-.93.51-.51,1-1,1.52-1.55l1.11-1.16c.36-.39.72-.75,1.06-1.11.55-.57,1.07-1.11,1.56-1.64l.11-.12,1.27-1.34s0,0,.06-.07c.31-.31.58-.6.84-.89h0l.25-.27c.25-.24.47-.49.66-.69.75-.79,1.18-1.26,1.18-1.26l9-10.25L318.84,487l.41-.46s2.34-3.52,4.73-6.43l.32-.39a20,20,0,0,1,2.73-2.81,16.71,16.71,0,0,0,2.21-2.24c.05,0,.09-.11.15-.17,2.7-3.16,6.19-8.07,7.31-9.68l.37-.52a19.7,19.7,0,0,0,2.56-2.56,13.3,13.3,0,0,0,2.24-3.65,16,16,0,0,1,2-3.35.1.1,0,0,0,0-.05l.16-.22.57-.74h0a15.44,15.44,0,0,0,2.14.26,29.83,29.83,0,0,0,9.72-1.24,2.16,2.16,0,0,0,.27-.09l0,0c.82-.19,1.44-.37,1.77-.47l.29-.09L365,443v0l.15-.21s3.28-3.11,6.42-6.44c.34-.36.67-.72,1-1.07,2.24-2.42,4.22-4.8,4.61-6.06,1-3.15,6.51-9.55,6.51-9.55s9.45-12.08,13.14-16.64c.15-.19.3-.38.43-.53v0l.5-.61a2.78,2.78,0,0,1,.32.26,6.11,6.11,0,0,1,.75.9.86.86,0,0,0,.07.12l.31-.44c.21-.28.5-.71.89-1.24a5.07,5.07,0,0,1,.79.95l.09.13s20.9-28.86,24.16-37a24.47,24.47,0,0,1,2.81-4.79c4.27-5.91,11.47-12.73,14.85-15.82l1-.89h0l0,0c.52-.48.83-.74.83-.74l.36.78c0,.06,0,.12.07.19.86,1.95,2.6,6.27,1.67,7.46-1.19,1.56-4.38,17.31-4.38,17.31s-4.35,6.92-1.53,17.55,14.6,14.34,17.23,14.12c1.69-.15,16.47,6,26.94,10.51h0l2.58,1.11h0l2.6,1.11,4.05,1.77h0l.23.1c.33.16.67.31,1,.44l.21-.28.1-.15,1,.47-1-.57c.41-.58,1.12-1.63,2-3.06a1.56,1.56,0,0,1,.16-.28l.28-.47.47-.8c.05-.11.11-.2.16-.29l.48-.86a.91.91,0,0,0,.08-.13c.66-1.2,1.35-2.54,2-4,.1-.19.2-.4.29-.6l2.58-.22h0l1.78-.15h0l1-.08h0l1.3-.13.61.12,24.64,1.78h0l1.8.14A16.92,16.92,0,0,0,553.79,389.26Z" transform="translate(-40.99 -36.78)" fill="url(#2c65cc85-6ec1-454a-a801-b7854259077c-180)"/><path d="M493.46,416.38s18.74-25.4,5.93-39.46L469,386.15l1.6,11.15S483.77,412.51,493.46,416.38Z" transform="translate(-40.99 -36.78)" fill="#65617d"/><path d="M469,386.15l1.6,11.15s9.3,10.7,18,16.44a28.55,28.55,0,0,0,4.89,2.64s.11-.13.3-.41a.88.88,0,0,0,.06-.1,69.93,69.93,0,0,0,5.92-10.38c.62-1.37,1.23-2.84,1.79-4.33,2-5.69,3.24-12.13,1.5-17.83a16.34,16.34,0,0,0-3.08-5.77c-.12-.14-.24-.29-.38-.43a1.68,1.68,0,0,0-.18-.21l-.67.2-10.28,3.12Z" transform="translate(-40.99 -36.78)" opacity="0.1"/><path d="M342.13,308.21l-2.55,2.27,1.42-3.27Z" transform="translate(-40.99 -36.78)" fill="#65617d"/><path d="M342.13,308.21l-2.55,2.27,1.42-3.27Z" transform="translate(-40.99 -36.78)" opacity="0.1"/><path d="M502.69,379.31s-13.22,14.41-5.2,23.54c0,0,3.86,1.12,9.55,2.17,13.11,2.4,35.88,4.4,43.18-8.74,10.44-18.82-39.38-17.12-39.38-17.12l-3.77.07Z" transform="translate(-40.99 -36.78)" fill="#fbbebe"/><path d="M502.69,379.31s-13.22,14.41-5.2,23.54c0,0,3.86,1.12,9.55,2.17l1.68-.15a15.92,15.92,0,0,1-5.84-3.66c-2.12-2.19-3.62-5.48-1.88-10.1a68.14,68.14,0,0,1,3.39-7.72,23.19,23.19,0,0,1,2.68-4.16Z" transform="translate(-40.99 -36.78)" opacity="0.1"/><path d="M480.36,407.17l4.44-.38,14.94-1.3,7.62-.67a15.84,15.84,0,0,1-5.83-3.66c-2.12-2.2-3.63-5.48-1.89-10.1a70.28,70.28,0,0,1,3.39-7.73c2.14-4,3.79-5.52,4.7-5.64s-4.43-.52-7-.69h-.1c-.73-.06-1.21-.08-1.21-.08l-.7.2L488.76,380l-.32.23C486,382,471.3,393.49,480.36,407.17Z" transform="translate(-40.99 -36.78)" fill="#e7effd"/><path d="M365.25,412.69l-15.38,35.15s-2.67,2.8-5.07,5.75a1,1,0,0,1-.13.16l-.58.75a1.57,1.57,0,0,0-.17.21.1.1,0,0,1,0,.05,18.05,18.05,0,0,0-2.56,4.07,12.5,12.5,0,0,1-1.69,2.93,20.53,20.53,0,0,1-2.93,3.08,1.12,1.12,0,0,1-.15.13s-4,5.73-7.16,9.55c-.06.06-.1.13-.15.17a21.78,21.78,0,0,1-2.67,2.79,17.08,17.08,0,0,0-2.27,2.26l-.32.39c-2.51,3-5.14,6.89-5.14,6.89l-9.16,10.43L300.39,508l-.89,1-.66.69-.25.27h0l-.84.89s-.05,0-.06.07l-1.27,1.34-.11.12c-.5.51-1,1.06-1.56,1.64-.34.36-.7.72-1.06,1.11l-1.11,1.16c-.5.51-1,1-1.52,1.55-.3.3-.6.62-.9.93l-.73.74c-.63.62-1.25,1.25-1.86,1.87l-.18.18-1.19,1.18-1.06,1-.45.43-.71.67-.43.4a5,5,0,0,1-.41.39c-.19.19-.38.36-.56.52l-.25.22a37.3,37.3,0,0,1-3.8,3.16,35.68,35.68,0,0,0-3.69,3l0,0-.57.55c-.21.18-.4.38-.59.56-1.55,1.54-2.93,3.09-4,4.33a4.57,4.57,0,0,0-.29.36.13.13,0,0,0-.06.05c-.77.93-1.32,1.64-1.56,1.95l-.13.16s0,0,0,0h0l0,0-2.65,2-1.2.91-2.43,1.88-.72.55c-2,1.56-4.08,3.21-5.79,4.61l-.56.47-.06.05-.52.43-.06.05c-.35.29-.66.57-.95.82l-.08.07-.53.48a7,7,0,0,0-.87.91,63.22,63.22,0,0,1-6.46,8.49c-.41.43-.83.84-1.26,1.24a13.72,13.72,0,0,1-3,2.19,14.62,14.62,0,0,0-1.71,1c12.65-37.08,29.66-82.69,49.77-133.21q2.16-5.43,4.37-10.94,2.49-6.18,5-12.45l.15-.35.72-1.78q9.6-23.7,20-48.45c.13-.33.27-.65.41-1l-.41-.45.76-.39c1.66-4,3.33-7.92,5-11.92.18-.41.36-.85.54-1.26.24-.58.49-1.15.72-1.72.08-.18.15-.36.23-.53.14-.34.29-.68.42-1q2.55-6,5.06-11.89L349.15,349l.74.81,12.3,13.55.75.81,3.83,4.22,2.07,2.28,1,1.09,12.32,13.57.16.18.58.63Z" transform="translate(-40.99 -36.78)" fill="#3f3d56"/><path d="M453.38,191.49,450.92,226s29.54,14,30.41,8.86c.35-2,4.2-5.3,8.8-8.58,7.25-5.19,16.36-10.36,16.36-10.36s-29.71-44.79-33.24-35.43c-1.29,3.42-4.28,5.81-7.56,7.46A40.11,40.11,0,0,1,453.38,191.49Z" transform="translate(-40.99 -36.78)" fill="#fbbebe"/><path d="M473.25,180.49c-1.29,3.42-1,4.21-4.27,5.86-.75,10.14-.73,22.15,6.73,30.2a37.75,37.75,0,0,0,14.42,9.73c7.25-5.19,16.36-10.36,16.36-10.36S476.78,171.13,473.25,180.49Z" transform="translate(-40.99 -36.78)" opacity="0.1"/><path d="M478.48,162.14A38,38,0,1,0,530.17,218l.39-.38a38,38,0,0,0-52.08-55.45Z" transform="translate(-40.99 -36.78)" fill="#fbbebe"/><path d="M367.23,403.39c-1.26,1.65-3.35,1.29-6.71-3.1a49.86,49.86,0,0,0-5.09-5.37l0,0c-.34-.32-.7-.65-1.05-1-3.73-3.43-8.51-7.52-13.66-12.16l-.33-.29c-2.29-2.07-4.68-4.26-7.06-6.53l-1.42-1.36h0c-3.26-3.15-6.53-6.49-9.65-10l-.14-.14c-1.15-1.28-2.29-2.58-3.42-3.84.13-.33.27-.65.41-1l-.41-.45.76-.39c1.66-4,3.33-7.92,5-11.92.18-.41.36-.85.54-1.26.24-.58.49-1.15.72-1.72.08-.18.15-.36.23-.53l1.17,1.46c1.9,2.38,3.84,4.77,5.8,7.14l.17.21c1.11,1.33,2.21,2.66,3.32,4,.05,0,.09.11.14.15,1.23,1.47,2.49,2.91,3.76,4.29l.74.79c1.36,1.47,2.72,2.85,4.08,4.19,3.2,3.14,6.36,6,9.27,8.4.28.24.55.47.84.7,2.57,2.14,4.94,4,7,5.46l.93.7,1.16.83c2.7,1.94,4.35,3,4.35,3s.15,1.37.27,3.39c.07,1.17.14,2.56.17,4C369.16,395.72,368.87,401.24,367.23,403.39Z" transform="translate(-40.99 -36.78)" opacity="0.1"/><path d="M367.23,403.39c-1.29.77-3.22-.09-6-3.74a50.19,50.19,0,0,0-5.31-5.57l-.1-.09-.95-.9c-3.6-3.3-8.13-7.2-13-11.6a2.89,2.89,0,0,1-.32-.29c-2.69-2.4-5.47-5-8.27-7.66h0c-.47-.44-.94-.9-1.42-1.37-3-2.92-6-6-8.88-9.21l-.13-.15-3.72-4.16-.41-.45.76-.39c1.66-4,3.33-7.92,5-11.92.18-.41.36-.85.54-1.26.24-.58.49-1.15.72-1.72.08-.18.15-.36.23-.53.14-.34.29-.68.42-1,2.07,2.59,4.2,5.24,6.35,7.86a.22.22,0,0,1,.06.07l1,1.24c1.15,1.39,2.3,2.76,3.45,4.14,1,1.23,2.08,2.42,3.13,3.58.18.21.37.41.56.61s.49.54.73.8A152.1,152.1,0,0,0,355,372.24c.27.24.55.47.83.7h0c2.48,2.06,4.77,3.85,6.73,5.32.37.26.72.53,1.06.78l1.16.83c2.83,2,4.56,3.13,4.56,3.13s.24,2.3.37,5.37c.05,1.27.08,2.66.07,4.08C369.75,397.21,369.21,402.21,367.23,403.39Z" transform="translate(-40.99 -36.78)" fill="#5f5d7e"/><path d="M485.29,261.7,382.16,385.31,373.25,396l-1.31,1.57a46.64,46.64,0,0,0-2.16-5.12c-.22-.44-.45-.91-.71-1.39a28.8,28.8,0,0,0-6.14-8.22c-.37-.32-.75-.62-1.13-.89l-.63-.42a10.71,10.71,0,0,0-1.92-.95,21,21,0,0,1-6.14-4.28h0l-.8-.74a119.68,119.68,0,0,1-12-14.22c-.23-.31-.45-.61-.65-.9-1.18-1.61-1.88-2.63-1.88-2.63s-.76-.92-2-2.29c-1-1.16-2.29-2.64-3.68-4.14a51.66,51.66,0,0,0-7.11-6.76c.24-.58.49-1.15.72-1.72.08-.18.15-.36.23-.53.14-.34.29-.68.42-1q2.55-6,5.06-11.89,4.11-9.6,8.16-19l1.42-3.27,4.07-9.4,1.56-3.56,1.17-2.7q6.39-14.58,12.65-28.61l65.27-58,7.86-3.74,7.57-3.58,5.42,1.56.81.22,5.26,1.52.07,0,1.27.37,2.61.75,1.29,17.29,0,.15,0,.48,2.38,3.42,1.48,2.15.64.25,2.71,1.05h0l.82.31.3.12h0l2.37.92h0l6.73,2.61,1.61,5,1,3.22.55,1.73L479,242Z" transform="translate(-40.99 -36.78)" opacity="0.1"/><path d="M486.69,260.4,382.32,385.49l-9,10.77-.09-.26a48.44,48.44,0,0,0-3.54-7.63c-.25-.44-.53-.89-.81-1.33a24.07,24.07,0,0,0-4.95-5.83h0c-.38-.3-.76-.58-1.15-.83a9.32,9.32,0,0,0-.9-.54,10.29,10.29,0,0,0-1.23-.55,21.44,21.44,0,0,1-6.35-4.47l-.81-.75a102.38,102.38,0,0,1-8.38-9.48c-1.39-1.77-2.62-3.4-3.61-4.74l-.65-.9c-.18-.24-.34-.47-.49-.69-.78-1.08-1.23-1.74-1.23-1.74s-3-3.66-6.37-7.22a.22.22,0,0,0-.06-.07,55.31,55.31,0,0,0-5.6-5.39,10.51,10.51,0,0,0-1.4-.93c.08-.18.15-.36.23-.53.14-.34.29-.68.42-1q2.55-6,5.06-11.89,4.11-9.6,8.16-19l1.42-3.27,4.07-9.4,1.56-3.56,1.17-2.7q6.39-14.58,12.65-28.61a.29.29,0,0,0,0-.1l66.65-59.24,6.73-3.2,8.7-4.13,5.21,1.5.81.23,4.25,1.23,1,.28,1.18.34,3,.87,1.34,17.92.68,1,.11.16.14.21h0l2.07,3h0l.84,1.22,3.34,1.3h0l4.16,1.61h0l6.08,2.36,2.08,6.51.37,1.16.54,1.68.26.82.17.51Z" transform="translate(-40.99 -36.78)" fill="#e7effd"/><path d="M471.14,235.37s-13.14.63-14.56,2.16-4.83,5.13-4.83,5.13l-5.16,13.48s-9.46,13.55-11.92,15.83-20,26.14-20,26.14l-28.28,35.33L349.11,379.5l-16.77,3.77-.62-13.37,67.47-81,13.17-16.11s25.14-27.42,28-30,11.4-8.15,11.4-8.15,5.62-8,1.4-15.9.78.15.78.15l6.3.92,1.64,4.36S472.68,230.46,471.14,235.37Z" transform="translate(-40.99 -36.78)" opacity="0.1"/><path d="M472.49,235.42s-13.14.63-14.56,2.16-4.83,5.13-4.83,5.13L448,256.19S438.49,269.74,436,272s-20,26.15-20,26.15l-28.27,35.32-37.28,46.07-16.77,3.76L333.08,370l67.46-81,13.18-16.12s25.14-27.42,27.95-30,11.4-8.15,11.4-8.15,5.62-8,1.4-15.89.79.14.79.14l6.3.92,1.64,4.36S474,230.51,472.49,235.42Z" transform="translate(-40.99 -36.78)" fill="#dadaf9"/><path d="M488.61,228.13s.16,1.59-4.31,6.17-12,17.63-12,17.63-2.85-20-9.43-25.24Z" transform="translate(-40.99 -36.78)" opacity="0.1"/><path d="M490,226.83s.17,1.59-4.3,6.16-12,17.64-12,17.64-2.85-20-9.44-25.25Z" transform="translate(-40.99 -36.78)" fill="#e7effd"/><path d="M461.52,191.35l.92,34.87s-24.6-7.28-28.9-7.22,19.08-25.5,19.08-25.5Z" transform="translate(-40.99 -36.78)" opacity="0.1"/><path d="M462.28,189.34l.92,34.87s-24.6-7.28-28.9-7.22,19.07-25.5,19.07-25.5Z" transform="translate(-40.99 -36.78)" fill="#e7effd"/><path d="M488,227.42s3,1.14,1.81,6,.87,9.87.87,9.87,16.36,24.49,14.3,27.92l8.64,10.51s2.79,3.95-4.27,11.14-6,9.72-6,9.72-3.47,10.84-7.55,14-2.69,8.38-2.69,8.38l-51.69,20.63S425.19,359.59,422,367.6s-24,36.63-24,36.63-1.49-2.55-2.79-1.13-14.38,18.11-14.38,18.11-5.44,6.35-6.47,9.47-11.94,13.46-11.94,13.46l-6.23,9.25s-14.1,4.78-19-3.33S347.45,405,347.45,405l21.46-34.46,22.73-32.37,17.6-19.57,40-42.23,24.35-30.16S484.44,227.63,488,227.42Z" transform="translate(-40.99 -36.78)" opacity="0.1"/><path d="M490,226.83s3,1.13,1.81,5.95.86,9.87.86,9.87,16.37,24.49,14.31,27.92l8.64,10.51s2.79,3.95-4.27,11.14-6,9.72-6,9.72-3.47,10.84-7.55,14-2.69,8.38-2.69,8.38L443.4,344.91S427.25,359,424,367s-24,36.62-24,36.62-1.49-2.55-2.79-1.13-14.38,18.11-14.38,18.11-5.44,6.35-6.47,9.48-11.94,13.45-11.94,13.45l-6.24,9.26s-14.09,4.77-19-3.34,10.33-45.06,10.33-45.06L371,369.94l22.73-32.37L411.3,318l40-42.23,24.35-30.16S486.5,227,490,226.83Z" transform="translate(-40.99 -36.78)" fill="#65617d"/><path d="M469,386.15l1.6,11.15s9.3,10.7,18,16.44l5.19,2.23,1,.45-1-.55c-4.79-2.85-7.61-5.93-9-9.08-5.67-12.62,11.2-26.28,15.15-29.23.39-.3.64-.49.75-.56l.05,0-.15,0a6.58,6.58,0,0,1-1,.13,8.1,8.1,0,0,1-.85,0h0L488.76,380l-.32.23Z" transform="translate(-40.99 -36.78)" opacity="0.1"/><path d="M493,320.13l2.11,4.15-6.25,6.66s4.16,3.32.57,8.61-4,9.12-4,9.12.58,11.45-3.67,16L483,371s10.69,7.31,16.39,5.95c0,0-34.16,23.79-5.93,39.46,0,0-34.36-15-37-14.76s-14.24-3.38-17-13.89,1.57-17.35,1.57-17.35,3.21-15.6,4.4-17.14-2.06-8.33-2.06-8.33l15.06-32.67Z" transform="translate(-40.99 -36.78)" fill="#65617d"/><path d="M462.27,189.35l0,.06,0,0-1.46,2.09h0L455,199.85l-1,1.42-1.44,2.09h0L450,207.08l-10.79,10.68-1.8,1.78-17.19,17-37.94,37.58-27.64,16s-3.95,2-8,4.1l1.17-2.7q6.39-14.58,12.65-28.61a.29.29,0,0,0,0-.1c15.89-35.59,31.11-68.36,45-97.06a4.47,4.47,0,0,1,.67.37c3.13,2.09,6.83,4.19,8.24,5l.59.33a26.9,26.9,0,0,0,2,2.79c1.15,1.39,2.58,2.75,3.76,2.75,2.38,0,13.64,7.19,15.27,9a10.81,10.81,0,0,0,2.49,1.72c2.63,1.47,6.15,2.92,6.15,2.92l8.22,1.39.32.06h.1c2.21.29,7-1.8,8.47-2.5l0,0,.42-.19h0Z" transform="translate(-40.99 -36.78)" opacity="0.1"/><path d="M462.29,189.35h0l0,0,0,0-1.82,2.18-6.6,7.89-1.07,1.29h0l-.08.07-4,4.79-11.76,11.64-1.84,1.82-13.2,13.07-40.92,40.52-27.64,16-5.49,2.81q6.39-14.58,12.65-28.61a.29.29,0,0,0,0-.1c15.89-35.59,31.11-68.36,45-97.06.08-.16.15-.32.23-.47,3.77,2.45,8,4.75,8,4.75s.27.45.71,1.08a21.15,21.15,0,0,0,2.61,3.12,4.09,4.09,0,0,0,2.46,1.34c2.38,0,13.64,7.19,15.27,9a15.61,15.61,0,0,0,4,2.51c2.3,1.16,4.64,2.12,4.64,2.12l8.53,1.46c2.26.38,8.49-.9,10-1.23a1.22,1.22,0,0,0,.25,0s0,0,0,0h.06Z" transform="translate(-40.99 -36.78)" fill="#65617d"/><path d="M298.81,411.28l-1-1.08.15-.35A11.89,11.89,0,0,0,298.81,411.28Z" transform="translate(-40.99 -36.78)" opacity="0.1"/><path d="M296.77,423l-8.32,10.64q2.16-5.43,4.37-10.94Z" transform="translate(-40.99 -36.78)" opacity="0.1"/><path d="M337.23,354.68l-.83.48-.62.36L322.94,363l-.13-.15-3.72-4.16-.41-.45.76-.39,12.66-6.42.81-.41.88-.44C334.94,351.93,336.08,353.3,337.23,354.68Z" transform="translate(-40.99 -36.78)" fill="#3f3d56"/><path d="M501.39,295.57s-7.12-3-11.49-1.12S501.39,295.57,501.39,295.57Z" transform="translate(-40.99 -36.78)" opacity="0.1"/><path d="M481,344.09s-2.2,16-8.54,16.18S481,344.09,481,344.09Z" transform="translate(-40.99 -36.78)" opacity="0.1"/><path d="M351,336.38c.05-1.36,9-39.69,3.4-41.49Z" transform="translate(-40.99 -36.78)" opacity="0.1"/><path d="M478.48,162.14a38,38,0,0,0-10.12,15.5l.23.18c2,1.42,4.93.43,7.47.59a7.48,7.48,0,0,1,6.74,5.51,8.76,8.76,0,0,1-3.13,8.68c4.58-2.59,8.31-6.56,12.88-9.17s10.81-3.52,14.21,0c1.46,1.52,2.53,3.88,4.73,3.93,1.32,0,2.56-.85,3.88-1.14,6.53-1.28,11.67,8.49,12.49,13.66.81,5,.86,12,2.7,17.69a38,38,0,0,0-52.08-55.45Z" transform="translate(-40.99 -36.78)" opacity="0.1"/><path d="M516.07,185.59c-1.32.28-2.55,1.17-3.88,1.14-2.19,0-3.27-2.41-4.73-3.93-3.39-3.54-9.63-2.64-14.2,0s-8.3,6.59-12.89,9.18a8.72,8.72,0,0,0,3.13-8.68,7.48,7.48,0,0,0-6.74-5.51c-2.54-.16-5.45.83-7.46-.6s-1.89-4.7-.62-7.06,3.36-4.22,4.9-6.43c2.92-4.18,3.71-9.34,6-13.88a25,25,0,0,1,13.2-12c3-1.16,6.22-1.69,9.24-2.84,4.59-1.74,8.69-4.88,13.4-6.18,7.88-2.18,16.57,1.86,19.51,9.06,1.41,3.43,1.6,7.36,3.16,10.72,2.1,4.5,6.37,7.43,10.19,10.55s7.54,7,7.85,12.11c.36,5.84-3.9,11.47-4,17.35,0,2.47.67,4.84.79,7.29s-.49,5.24-2.52,6.82c-2.62,2.05-7,1.71-8.46,4.67a7.54,7.54,0,0,0-.52,2.89,33.34,33.34,0,0,1-4.4,14.63c-7.77-4.46-7.14-17.67-8.42-25.6C527.74,194.08,522.61,184.31,516.07,185.59Z" transform="translate(-40.99 -36.78)" fill="#7c5c5c"/><path d="M471.09,314.59s-26.74,24.76-27.26,29.49S471.09,314.59,471.09,314.59Z" transform="translate(-40.99 -36.78)" opacity="0.1"/><g opacity="0.1"><path d="M543.87,204.86c1.4-2.89,5.64-2.64,8.27-4.54a5.9,5.9,0,0,1-1.77,2.34c-1.92,1.5-4.79,1.73-6.76,2.9A3.7,3.7,0,0,1,543.87,204.86Z" transform="translate(-40.99 -36.78)"/><path d="M482.57,189.33c4.47-2.58,8.16-6.46,12.65-9s10.81-3.52,14.2,0c1.46,1.52,2.54,3.88,4.73,3.93,1.33,0,2.56-.86,3.88-1.14,6.54-1.28,11.67,8.49,12.5,13.66,1.25,7.75.68,20.51,7.89,25.26-.44,1-.9,1.89-1.43,2.81-7.77-4.46-7.14-17.67-8.42-25.6-.83-5.17-6-14.94-12.5-13.66-1.32.28-2.55,1.17-3.88,1.14-2.19,0-3.27-2.41-4.73-3.93-3.39-3.54-9.63-2.64-14.2,0s-8.3,6.59-12.89,9.18A8.79,8.79,0,0,0,482.57,189.33Z" transform="translate(-40.99 -36.78)"/><path d="M470.64,167.63c-1.27,2.36-1.43,5.61.62,7.06s4.92.44,7.46.6a7.5,7.5,0,0,1,6.75,5.51,8.73,8.73,0,0,1-2.8,8.37,8.34,8.34,0,0,0,.83-5.9,7.48,7.48,0,0,0-6.74-5.51c-2.54-.16-5.45.83-7.46-.6s-1.89-4.7-.62-7.06a22,22,0,0,1,2.77-3.77A13.42,13.42,0,0,0,470.64,167.63Z" transform="translate(-40.99 -36.78)"/><path d="M481.51,147.32c-2.26,4.54-3,9.7-6,13.88-.59.85-1.26,1.64-1.93,2.43,2.9-4.17,3.69-9.32,5.94-13.84a24.25,24.25,0,0,1,3.86-5.59A23.2,23.2,0,0,0,481.51,147.32Z" transform="translate(-40.99 -36.78)"/></g><circle cx="512.81" cy="358.37" r="0.39" fill="#e6e8ec"/><path d="M860.28,796.75c.24,12-99.15-2.28-95.43-12l-.52.15c-12.52,2.84-78.67-20.27-73.36-30.8C636.71,705.58,612.2,662,660.79,564.13a7.31,7.31,0,0,0,.38-2c0-.24.09-.48.13-.71.17-.86.33-1.72.5-2.58,0-.14.05-.27.08-.4s.09-.42.13-.63q2.1-10.83,4.67-21.75a593.81,593.81,0,0,1,35.75-107.43c.32-.69.62-1.38.94-2.06.18-.41.37-.82.56-1.22l1.23-2.68c.05-.12.11-.23.16-.35.2-.4.38-.8.57-1.19,12.62-27,26.74-50.7,41.59-70.17-7-4-29.63-34.54-24-58.62,6-25.56,38.81-35.32,46.95-33.43s9.9,24.16,3.94,49.72a139,139,0,0,1-5.29,17.58c26-25.74,53.22-38.06,78.1-32.27,20.64,4.81,37.19,21.51,49.07,46.81.24-1.17.51-2.35.78-3.54,6-25.56,17.37-44.75,25.52-42.86s35.58,30.15,29.62,55.71c-3.95,17-36,25.14-42.22,32.19,12.24,54.84,15.6,135.7,24.21,216.51C945.58,706.17,925.81,763.56,860.28,796.75Z" transform="translate(-40.99 -36.78)" fill="#dadaf9"/><path d="M846.72,440.78c-4.52,19.38-30.58,30.15-60.07,25.84q-3.84-.56-7.73-1.46-3.2-.75-6.25-1.69c-29.11-8.93-48.37-30.47-43.78-50.15,3.44-14.8,19.48-24.59,40-26.46a84.29,84.29,0,0,1,13.41-.09A92,92,0,0,1,796.68,389C829.22,396.53,851.62,419.73,846.72,440.78Z" transform="translate(-40.99 -36.78)" opacity="0.2"/><ellipse cx="798.25" cy="444.46" rx="24.54" ry="36.27" transform="translate(143.26 1084.26) rotate(-76.88)" fill="#3f3d56"/><path d="M778.85,399c-4.37,10.45-7.32,7.79-11,6.27s-6.63-1.36-2.25-11.81a57.33,57.33,0,0,1,3.28-6.61,84.29,84.29,0,0,1,13.41-.09A48.31,48.31,0,0,1,778.85,399Z" transform="translate(-40.99 -36.78)" fill="#fff"/><path d="M786.65,466.62q-3.84-.56-7.73-1.46-3.2-.75-6.25-1.69c2.35-10.75,6.09-11.61,9.88-10.83S788.82,455.69,786.65,466.62Z" transform="translate(-40.99 -36.78)" fill="#fff"/><circle cx="766.16" cy="307.24" r="22.15" opacity="0.2"/><ellipse cx="751.02" cy="304.04" rx="17.01" ry="9.19" transform="translate(243.51 929.71) rotate(-76.88)" opacity="0.1"/><ellipse cx="920.99" cy="338.65" rx="17.01" ry="9.19" transform="translate(53.86 831.39) rotate(-52.85)" opacity="0.12"/><path d="M808,333.13a10.38,10.38,0,0,0-1.22-.21,6.13,6.13,0,0,1,.36,3.89,6.21,6.21,0,0,1-11.24,2,11,11,0,0,0-.87,2.39,10.8,10.8,0,1,0,13-8.07Z" transform="translate(-40.99 -36.78)" fill="#3f3d56"/><path d="M776.34,373c-.92,3.95-2.08,2.62-3.8,2.22s-3.34.28-2.42-3.67,5.76-10.64,5.76-10.64S777.26,369.05,776.34,373Z" transform="translate(-40.99 -36.78)" opacity="0.2"/><path d="M818.69,311.59c-.92,4-2.08,2.62-3.8,2.22s-3.34.28-2.42-3.67,5.76-10.64,5.76-10.64S819.61,307.63,818.69,311.59Z" transform="translate(-40.99 -36.78)" opacity="0.2"/><path d="M858,337.5c-.92,3.95-2.08,2.62-3.8,2.22s-3.34.28-2.42-3.67,5.76-10.64,5.76-10.64S858.91,333.55,858,337.5Z" transform="translate(-40.99 -36.78)" opacity="0.2"/><path d="M868.86,373.87c-.92,3.95-2.07,2.62-3.79,2.22s-3.34.28-2.42-3.67,5.75-10.64,5.75-10.64S869.79,369.91,868.86,373.87Z" transform="translate(-40.99 -36.78)" opacity="0.2"/><path d="M764.85,782.65l-.52,2.21c-12.52,2.84-78.67-20.27-73.36-30.8Z" transform="translate(-40.99 -36.78)" opacity="0.2"/><path d="M764.85,784.71l-.52.15.52-2.21c19-5.55,95.43,14.1,95.43,14.1C860.52,808.71,761.13,794.47,764.85,784.71Z" transform="translate(-40.99 -36.78)" opacity="0.2"/><g opacity="0.1"><path d="M775,448.79c-5.06,22.75-26.09,52.61-57.3,78.28a239.33,239.33,0,0,1-56.35,34.36c.19-1,.39-2,.58-3q2.16-11.13,4.8-22.38a593.81,593.81,0,0,1,35.75-107.43c.32-.69.62-1.38.94-2.06.18-.41.37-.82.56-1.22,20.84-9.8,39.9-13.74,53.25-10.68a25.17,25.17,0,0,1,12.12,6.19,20.1,20.1,0,0,1,1.66,1.79,23.6,23.6,0,0,1,5,13.15A42.69,42.69,0,0,1,775,448.79Z" transform="translate(-40.99 -36.78)"/></g><g opacity="0.1"><path d="M773.34,446.19c-5.06,22.75-26.09,52.61-57.31,78.28a239.62,239.62,0,0,1-54,33.35q2.1-10.83,4.67-21.75a593.81,593.81,0,0,1,35.75-107.43c.32-.69.62-1.38.94-2.06.18-.41.37-.82.56-1.22l1.23-2.68.73-1.54c19.44-8.6,37.1-11.94,49.67-9.06a25.13,25.13,0,0,1,12.12,6.2,20,20,0,0,1,1.66,1.78,23.64,23.64,0,0,1,5.06,13.16A42.65,42.65,0,0,1,773.34,446.19Z" transform="translate(-40.99 -36.78)"/></g><path d="M773.09,447.25C768,470,747,499.86,715.79,525.53a239.52,239.52,0,0,1-54,33.32c0-.14.05-.27.08-.4s.09-.42.13-.63q2.1-10.83,4.67-21.75a593.81,593.81,0,0,1,35.75-107.43c.32-.69.62-1.38.94-2.06.18-.41.37-.82.56-1.22l1.23-2.68c.05-.12.11-.23.16-.35,19.57-8.71,37.35-12.1,50-9.2a25.27,25.27,0,0,1,12.12,6.2,18.81,18.81,0,0,1,1.66,1.79,23.57,23.57,0,0,1,5,13.15A42.69,42.69,0,0,1,773.09,447.25Z" transform="translate(-40.99 -36.78)" fill="#dadaf9"/><ellipse cx="755.77" cy="648.6" rx="108.88" ry="104.97" transform="translate(-88.4 1200.7) rotate(-76.88)" opacity="0.1"/><ellipse cx="755.28" cy="650.71" rx="108.88" ry="104.97" transform="translate(-90.83 1201.85) rotate(-76.88)" fill="#dadaf9"/><path d="M764,621.67a6.83,6.83,0,0,1-13.31-3.1c.86-3.68,3.4-1.11,7.07-.26S764.83,618,764,621.67Z" transform="translate(-40.99 -36.78)" fill="#65617d"/><g opacity="0.1"><path d="M837,294.91c20.63,4.81,37.19,21.51,49.07,46.8.24-1.16.5-2.34.78-3.53.72-3.1,1.53-6.1,2.39-9-11.23-18.95-25.71-31.43-43.09-35.48a56.94,56.94,0,0,0-24.59-.12A54.79,54.79,0,0,1,837,294.91Z" transform="translate(-40.99 -36.78)"/><path d="M933.11,598.53c-8.61-80.81-12-161.67-24.21-216.51,6.22-7,38.27-15.22,42.22-32.19,6-25.56-21.49-53.81-29.62-55.71-2-.47-4.28.37-6.58,2.3C925.06,302.18,947.4,327.71,942,351c-4,17-36,25.14-42.22,32.19C912,438.06,915.35,518.92,924,599.73c11.44,107.4-8.33,164.78-73.86,198,0,1.46-1.44,2.53-4,3.27,8-.36,13.24-1.72,13.18-4.47C924.78,763.32,944.55,705.93,933.11,598.53Z" transform="translate(-40.99 -36.78)"/><path d="M760.22,259.88c8.14,1.89,9.9,24.15,3.95,49.72a139.49,139.49,0,0,1-5.3,17.58q6.2-6.12,12.46-11.21c.71-2.45,1.38-5,2-7.56,6-25.57,4.19-47.83-3.94-49.73-2.14-.5-6-.18-10.61,1A8.25,8.25,0,0,1,760.22,259.88Z" transform="translate(-40.99 -36.78)"/></g><g opacity="0.1"><path d="M916.67,623.1c-23.55,10.65-70.85-35.64-95.33-89.73-16.65-36.82-22.32-72.9-16.8-95.54a42.65,42.65,0,0,1,4.78-12.11,23.64,23.64,0,0,1,10.35-9.57,19.08,19.08,0,0,1,2.28-.87,25.24,25.24,0,0,1,13.61-.2c22.78,5.4,51.53,36.54,71.05,79.71C931.08,548.87,940.22,612.44,916.67,623.1Z" transform="translate(-40.99 -36.78)"/><g opacity="0.1"><path d="M830,456.31c-2.64,2.42-12-3.49-21-13.22-1.62-1.76-3.11-3.53-4.46-5.26a42.65,42.65,0,0,1,4.78-12.11,76.77,76.77,0,0,1,9.22,8.6C827.48,444,832.59,453.88,830,456.31Z" transform="translate(-40.99 -36.78)"/><path d="M835.56,415.08a85.74,85.74,0,0,1,6.6,6.44c8.94,9.72,14,19.56,11.4,22s-12-3.48-20.94-13.21c-5-5.39-8.75-10.82-10.67-15Z" transform="translate(-40.99 -36.78)"/></g></g><g opacity="0.1"><path d="M919.76,619.38c-23.55,10.66-70.85-35.64-95.33-89.72-16.66-36.83-22.33-72.91-16.81-95.55A42.66,42.66,0,0,1,812.41,422a23.58,23.58,0,0,1,10.35-9.57,20.74,20.74,0,0,1,2.27-.86,25.08,25.08,0,0,1,13.62-.2c22.77,5.39,51.52,36.54,71.05,79.7C934.17,545.15,943.3,608.72,919.76,619.38Z" transform="translate(-40.99 -36.78)"/></g><path d="M918.21,621.24c-23.54,10.66-70.85-35.64-95.32-89.73-16.66-36.82-22.33-72.9-16.81-95.54a42.66,42.66,0,0,1,4.79-12.11,23.56,23.56,0,0,1,10.34-9.57,21,21,0,0,1,2.28-.87,25.24,25.24,0,0,1,13.61-.2c22.78,5.4,51.53,36.55,71.06,79.71C932.62,547,941.76,610.58,918.21,621.24Z" transform="translate(-40.99 -36.78)" fill="#dadaf9"/><path d="M1082.32,650.71s5.64,7.37-2.6,18.51-15,20.54-12.3,27.49c0,0,12.44-20.69,22.57-21S1093.46,663.15,1082.32,650.71Z" transform="translate(-40.99 -36.78)" fill="#dadaf9"/><path d="M1082.32,650.71a8.7,8.7,0,0,1,1.15,2.31c9.88,11.61,15.15,22.44,5.65,22.71-8.85.25-19.46,16.07-22,20.07.09.3.19.61.3.91,0,0,12.44-20.69,22.57-21S1093.46,663.15,1082.32,650.71Z" transform="translate(-40.99 -36.78)" opacity="0.1"/><path d="M1092.81,660.11c0,2.6-.29,4.7-.65,4.7s-.65-2.1-.65-4.7.36-1.37.72-1.37S1092.81,657.51,1092.81,660.11Z" transform="translate(-40.99 -36.78)" fill="#ffd037"/><path d="M1096.41,663.21c-2.28,1.24-4.27,2-4.44,1.68s1.53-1.58,3.81-2.82,1.39-.34,1.56,0S1098.69,662,1096.41,663.21Z" transform="translate(-40.99 -36.78)" fill="#ffd037"/><path d="M1052.52,650.71s-5.64,7.37,2.61,18.51,15,20.54,12.29,27.49c0,0-12.44-20.69-22.56-21S1041.39,663.15,1052.52,650.71Z" transform="translate(-40.99 -36.78)" fill="#dadaf9"/><path d="M1052.52,650.71a9.09,9.09,0,0,0-1.15,2.31c-9.88,11.61-15.14,22.44-5.64,22.71,8.84.25,19.45,16.07,22,20.07a8.06,8.06,0,0,1-.3.91s-12.44-20.69-22.56-21S1041.39,663.15,1052.52,650.71Z" transform="translate(-40.99 -36.78)" opacity="0.1"/><path d="M1042,660.11c0,2.6.29,4.7.65,4.7s.65-2.1.65-4.7-.36-1.37-.72-1.37S1042,657.51,1042,660.11Z" transform="translate(-40.99 -36.78)" fill="#ffd037"/><path d="M1038.44,663.21c2.28,1.24,4.27,2,4.44,1.68s-1.54-1.58-3.82-2.82-1.38-.34-1.55,0S1036.16,662,1038.44,663.21Z" transform="translate(-40.99 -36.78)" fill="#ffd037"/><ellipse cx="1026.44" cy="707.31" rx="58.98" ry="9.05" fill="#dadaf9" opacity="0.1"/><path d="M1097.78,686.76l-.28,2.31-.4,3.25-.16,1.36-.4,3.25-.17,1.36-.39,3.25-4.52,37c-.4,3.31-5.8,5.88-12.31,5.88H1055.7c-6.52,0-11.91-2.57-12.31-5.88l-4.52-37-.4-3.25-.16-1.36-.4-3.25-.17-1.36-.39-3.25-.29-2.31c-.22-1.87,2.7-3.44,6.38-3.44h48C1095.09,683.32,1098,684.89,1097.78,686.76Z" transform="translate(-40.99 -36.78)" fill="#65617d"/><polygon points="1056.51 652.29 1056.12 655.54 996.76 655.54 996.36 652.29 1056.51 652.29" fill="#9d9cb5"/><polygon points="1055.95 656.9 1055.56 660.15 997.32 660.15 996.92 656.9 1055.95 656.9" fill="#9d9cb5"/><polygon points="1055.38 661.51 1054.99 664.76 997.88 664.76 997.49 661.51 1055.38 661.51" fill="#9d9cb5"/><path d="M390,719.75s7.9,10.33-3.65,25.93-21.07,28.77-17.22,38.5c0,0,17.43-29,31.61-29.38S405.55,737.17,390,719.75Z" transform="translate(-40.99 -36.78)" fill="#dadaf9"/><path d="M390,719.75a13,13,0,0,1,1.62,3.24c13.83,16.26,21.21,31.43,7.9,31.81-12.39.36-27.25,22.51-30.81,28.11.12.43.26.85.42,1.27,0,0,17.43-29,31.61-29.38S405.55,737.17,390,719.75Z" transform="translate(-40.99 -36.78)" opacity="0.1"/><path d="M404.64,732.92c0,3.64-.41,6.58-.91,6.58s-.91-2.94-.91-6.58.51-1.92,1-1.92S404.64,729.28,404.64,732.92Z" transform="translate(-40.99 -36.78)" fill="#ffd037"/><path d="M409.68,737.26c-3.19,1.74-6,2.79-6.22,2.35s2.16-2.21,5.35-4,1.93-.47,2.17,0S412.87,735.52,409.68,737.26Z" transform="translate(-40.99 -36.78)" fill="#ffd037"/><path d="M348.22,719.75s-7.91,10.33,3.64,25.93,21.07,28.77,17.22,38.5c0,0-17.42-29-31.6-29.38S332.62,737.17,348.22,719.75Z" transform="translate(-40.99 -36.78)" fill="#dadaf9"/><path d="M348.22,719.75A12.55,12.55,0,0,0,346.6,723c-13.84,16.26-21.21,31.43-7.91,31.81,12.39.36,27.26,22.51,30.82,28.11a11.86,11.86,0,0,1-.43,1.27s-17.42-29-31.6-29.38S332.62,737.17,348.22,719.75Z" transform="translate(-40.99 -36.78)" opacity="0.1"/><path d="M333.53,732.92c0,3.64.4,6.58.91,6.58s.91-2.94.91-6.58-.51-1.92-1-1.92S333.53,729.28,333.53,732.92Z" transform="translate(-40.99 -36.78)" fill="#ffd037"/><path d="M328.49,737.26c3.19,1.74,6,2.79,6.21,2.35s-2.15-2.21-5.34-4-1.93-.47-2.18,0S325.29,735.52,328.49,737.26Z" transform="translate(-40.99 -36.78)" fill="#ffd037"/><ellipse cx="328.1" cy="813.77" rx="82.61" ry="12.68" fill="#dadaf9" opacity="0.1"/><path d="M411.61,770.25l-.4,3.23-.56,4.56-.23,1.9-.55,4.56-.24,1.9-.55,4.55-6.33,51.83c-.56,4.62-8.12,8.23-17.24,8.23H352.66c-9.13,0-16.67-3.61-17.24-8.23L329.09,791l-.55-4.55-.23-1.9-.57-4.56-.23-1.9-.55-4.56-.4-3.23c-.31-2.62,3.77-4.82,8.94-4.82h67.18C407.83,765.43,411.93,767.63,411.61,770.25Z" transform="translate(-40.99 -36.78)" fill="#65617d"/><polygon points="370.22 736.7 369.67 741.26 286.53 741.26 285.97 736.7 370.22 736.7" fill="#9d9cb5"/><polygon points="369.44 743.16 368.88 747.72 287.32 747.72 286.76 743.16 369.44 743.16" fill="#9d9cb5"/><polygon points="368.64 749.62 368.09 754.17 288.1 754.17 287.55 749.62 368.64 749.62" fill="#9d9cb5"/></svg>