<svg viewBox="0 0 1126 210" fill="lightgray" xmlns="http://www.w3.org/2000/svg">
    <g clip-path="url(#clip0_176_19)">
      <g clip-path="url(#clip1_176_19)">
        <path
          d="M210 0.458344H0.458252V210H210V0.458344Z"
          fill="#FF6600"
          stroke="white"
          stroke-width="0.09375"
        ></path>
        <path
          d="M77.6457 46.1674L103 98.9889L128.354 46.1674H150.162L111.906 118.043V164.291H94.0946V118.043L55.8381 46.1674H77.6457Z"
          fill="white"
        ></path>
      </g>
      <path d="M333.355 151H310.855V112.562H277.633V151H255.133V63.7539H277.633V95.6875H310.855V63.7539H333.355V151ZM394.352 133.832V120.121C391.5 120.355 388.414 120.688 385.094 121.117C381.773 121.508 379.254 121.977 377.535 122.523C375.426 123.188 373.805 124.164 372.672 125.453C371.578 126.703 371.031 128.363 371.031 130.434C371.031 131.801 371.148 132.914 371.383 133.773C371.617 134.633 372.203 135.453 373.141 136.234C374.039 137.016 375.113 137.602 376.363 137.992C377.613 138.344 379.566 138.52 382.223 138.52C384.332 138.52 386.461 138.09 388.609 137.23C390.797 136.371 392.711 135.238 394.352 133.832ZM394.352 144.027C393.219 144.887 391.812 145.922 390.133 147.133C388.453 148.344 386.871 149.301 385.387 150.004C383.316 150.941 381.168 151.625 378.941 152.055C376.715 152.523 374.273 152.758 371.617 152.758C365.367 152.758 360.133 150.824 355.914 146.957C351.695 143.09 349.586 138.148 349.586 132.133C349.586 127.328 350.66 123.402 352.809 120.355C354.957 117.309 358.004 114.906 361.949 113.148C365.855 111.391 370.699 110.141 376.48 109.398C382.262 108.656 388.258 108.109 394.469 107.758V107.406C394.469 103.773 392.984 101.273 390.016 99.9062C387.047 98.5 382.672 97.7969 376.891 97.7969C373.414 97.7969 369.703 98.4219 365.758 99.6719C361.812 100.883 358.98 101.82 357.262 102.484H355.328V86.6055C357.555 86.0195 361.168 85.3359 366.168 84.5547C371.207 83.7344 376.246 83.3242 381.285 83.3242C393.277 83.3242 401.93 85.1797 407.242 88.8906C412.594 92.5625 415.27 98.3438 415.27 106.234V151H394.352V144.027ZM468.941 152.758C463.199 152.758 457.945 152.074 453.18 150.707C448.453 149.34 444.332 147.23 440.816 144.379C437.34 141.527 434.645 137.934 432.73 133.598C430.816 129.262 429.859 124.184 429.859 118.363C429.859 112.23 430.875 106.938 432.906 102.484C434.977 98.0312 437.848 94.3398 441.52 91.4102C445.074 88.6367 449.176 86.6055 453.824 85.3164C458.473 84.0273 463.297 83.3828 468.297 83.3828C472.789 83.3828 476.93 83.8711 480.719 84.8477C484.508 85.8242 488.043 87.0938 491.324 88.6562V106.645H488.336C487.516 105.941 486.52 105.121 485.348 104.184C484.215 103.246 482.809 102.328 481.129 101.43C479.527 100.57 477.77 99.8672 475.855 99.3203C473.941 98.7344 471.715 98.4414 469.176 98.4414C463.551 98.4414 459.215 100.238 456.168 103.832C453.16 107.387 451.656 112.23 451.656 118.363C451.656 124.691 453.199 129.496 456.285 132.777C459.41 136.059 463.824 137.699 469.527 137.699C472.184 137.699 474.566 137.406 476.676 136.82C478.824 136.195 480.602 135.473 482.008 134.652C483.336 133.871 484.508 133.051 485.523 132.191C486.539 131.332 487.477 130.492 488.336 129.672H491.324V147.66C488.004 149.223 484.527 150.453 480.895 151.352C477.301 152.289 473.316 152.758 468.941 152.758ZM575.172 151H550.621L532.164 122.348L526.422 129.32V151H505.328V59.8281H526.422V114.262L549.156 85.1992H573.473L549.801 113.559L575.172 151ZM650.641 121.996H602.359C602.672 127.152 604.625 131.098 608.219 133.832C611.852 136.566 617.184 137.934 624.215 137.934C628.668 137.934 632.984 137.133 637.164 135.531C641.344 133.93 644.645 132.211 647.066 130.375H649.41V147.309C644.645 149.223 640.152 150.609 635.934 151.469C631.715 152.328 627.047 152.758 621.93 152.758C608.727 152.758 598.609 149.789 591.578 143.852C584.547 137.914 581.031 129.457 581.031 118.48C581.031 107.621 584.352 99.0273 590.992 92.6992C597.672 86.332 606.812 83.1484 618.414 83.1484C629.117 83.1484 637.164 85.8633 642.555 91.293C647.945 96.6836 650.641 104.457 650.641 114.613V121.996ZM629.664 109.633C629.547 105.219 628.453 101.898 626.383 99.6719C624.312 97.4453 621.09 96.332 616.715 96.332C612.652 96.332 609.312 97.3867 606.695 99.4961C604.078 101.605 602.613 104.984 602.301 109.633H629.664ZM713.219 105.297H711.344C710.445 104.984 709 104.75 707.008 104.594C705.016 104.438 703.355 104.359 702.027 104.359C699.02 104.359 696.363 104.555 694.059 104.945C691.754 105.336 689.273 106 686.617 106.938V151H665.523V85.1992H686.617V94.8672C691.266 90.8828 695.309 88.2461 698.746 86.957C702.184 85.6289 705.348 84.9648 708.238 84.9648C708.98 84.9648 709.82 84.9844 710.758 85.0234C711.695 85.0625 712.516 85.1211 713.219 85.1992V105.297ZM846.695 151H825.016L787.984 91.1172V151H767.359V63.7539H794.254L826.07 113.734V63.7539H846.695V151ZM932.594 121.996H884.312C884.625 127.152 886.578 131.098 890.172 133.832C893.805 136.566 899.137 137.934 906.168 137.934C910.621 137.934 914.938 137.133 919.117 135.531C923.297 133.93 926.598 132.211 929.02 130.375H931.363V147.309C926.598 149.223 922.105 150.609 917.887 151.469C913.668 152.328 909 152.758 903.883 152.758C890.68 152.758 880.562 149.789 873.531 143.852C866.5 137.914 862.984 129.457 862.984 118.48C862.984 107.621 866.305 99.0273 872.945 92.6992C879.625 86.332 888.766 83.1484 900.367 83.1484C911.07 83.1484 919.117 85.8633 924.508 91.293C929.898 96.6836 932.594 104.457 932.594 114.613V121.996ZM911.617 109.633C911.5 105.219 910.406 101.898 908.336 99.6719C906.266 97.4453 903.043 96.332 898.668 96.332C894.605 96.332 891.266 97.3867 888.648 99.4961C886.031 101.605 884.566 104.984 884.254 109.633H911.617ZM1052.42 85.1992L1032.03 151H1009.64L996.227 106.645L983.043 151H960.367L940.152 85.1992H962.301L973.551 130.551L987.613 85.1992H1006.3L1019.66 130.551L1030.74 85.1992H1052.42ZM1122.2 130.141C1122.2 136.938 1119.16 142.426 1113.06 146.605C1106.97 150.746 1098.63 152.816 1088.04 152.816C1082.18 152.816 1076.87 152.27 1072.11 151.176C1067.34 150.082 1063.51 148.871 1060.62 147.543V130.199H1062.55C1063.61 130.941 1064.82 131.762 1066.19 132.66C1067.59 133.52 1069.57 134.457 1072.11 135.473C1074.29 136.371 1076.77 137.152 1079.55 137.816C1082.32 138.441 1085.29 138.754 1088.45 138.754C1092.59 138.754 1095.66 138.305 1097.65 137.406C1099.64 136.469 1100.64 135.102 1100.64 133.305C1100.64 131.703 1100.05 130.551 1098.88 129.848C1097.71 129.105 1095.48 128.402 1092.2 127.738C1090.64 127.387 1088.51 127.016 1085.82 126.625C1083.16 126.195 1080.74 125.688 1078.55 125.102C1072.57 123.539 1068.14 121.117 1065.25 117.836C1062.36 114.516 1060.91 110.395 1060.91 105.473C1060.91 99.1445 1063.9 93.8906 1069.88 89.7109C1075.89 85.4922 1084.1 83.3828 1094.49 83.3828C1099.41 83.3828 1104.12 83.8906 1108.61 84.9062C1113.14 85.8828 1116.68 86.9375 1119.21 88.0703V104.711H1117.4C1114.27 102.562 1110.7 100.824 1106.68 99.4961C1102.69 98.1289 1098.65 97.4453 1094.55 97.4453C1091.15 97.4453 1088.28 97.9141 1085.93 98.8516C1083.63 99.7891 1082.48 101.117 1082.48 102.836C1082.48 104.398 1083 105.59 1084.06 106.41C1085.11 107.23 1087.59 108.051 1091.5 108.871C1093.65 109.301 1095.95 109.73 1098.41 110.16C1100.91 110.551 1103.41 111.059 1105.91 111.684C1111.46 113.129 1115.56 115.414 1118.22 118.539C1120.88 121.625 1122.2 125.492 1122.2 130.141Z"></path>
    </g>
    <defs>
      <clipPath id="clip0_176_19">
        <rect width="1126" height="210" fill="white"></rect>
      </clipPath>
      <clipPath id="clip1_176_19">
        <rect width="214" height="214" fill="white" transform="translate(-4 -4)"></rect>
      </clipPath>
    </defs>
  </svg>