 <!DOCTYPE svg PUBLIC "-//W3C//DTD SVG 1.1//EN" "http://www.w3.org/Graphics/SVG/1.1/DTD/svg11.dtd">

<svg id="ab01b6ca-fda4-4c55-a447-43113c79b51e" data-name="Layer 1" xmlns="http://www.w3.org/2000/svg" width="865.76" height="682.89" viewBox="0 0 865.76 682.89">

<defs>

<style xmlns="http://www.w3.org/1999/xhtml">*, ::after, ::before { box-sizing: border-box; }
img, svg { vertical-align: middle; }
</style>

<style xmlns="http://www.w3.org/1999/xhtml">*, body, html { -webkit-font-smoothing: antialiased; }
img, svg { max-width: 100%; }
</style>

</defs>

<g id="aacbc6a0-2124-4f6c-b34d-11346ed3b501" data-name="freepik--background-simple--inject-2">

<path d="M732.32,286.81s19.57-46.27,1.78-119.22S634.47,91.07,565,82.18,490.32,28.8,415.6,23.46s-138.76,40.93-151.24,89,1.78,72.95-51.58,110.32-105,69.39-83.65,138.79,74.73,69.39,83.63,115.65,71.17,103.15,144.13,126.34,122.77-41,190.38-37.37S679,564.37,711,512.78s-14.24-101.43-5.34-137S725.29,320.6,732.32,286.81Z" fill="#014D4E" data-primary="true"/>

<path d="M732.32,286.81s19.57-46.27,1.78-119.22S634.47,91.07,565,82.18,490.32,28.8,415.6,23.46s-138.76,40.93-151.24,89,1.78,72.95-51.58,110.32-105,69.39-83.65,138.79,74.73,69.39,83.63,115.65,71.17,103.15,144.13,126.34,122.77-41,190.38-37.37S679,564.37,711,512.78s-14.24-101.43-5.34-137S725.29,320.6,732.32,286.81Z" fill="#fff" opacity="0.7" style="isolation:isolate"/>

</g>

<g id="a4889a5a-1504-4c3e-a144-1f84ee95c415" data-name="freepik--Mountains--inject-2">

<path d="M711,512.78c14.33-23.14,13-45.85,7.89-67.2-2.62-.2-5.53-.34-8.85-.34-21.25,0-26.25,36.26-38.68,37.51S640.07,464,618.82,464s-48.71,86.25-58.74,92.51-17.51-5-38.76-13.75-48.71,18.75-73.75,27.49-52.5-6.24-61.25-22.49S357.56,484,340.07,485.24s-35,13.75-45,2.51S251.31,385.24,238.82,384c-8.16-.82-45.56,21.78-70.59,37.58,19.78,17.77,39.44,29.23,44.53,55.62,8.89,46.26,71.17,103.15,144.13,126.34s122.77-41,190.38-37.37S679,564.37,711,512.78Z" fill="#014D4E" data-primary="true"/>

<path d="M711,512.78c14.33-23.14,13-45.85,7.89-67.2-2.62-.2-5.53-.34-8.85-.34-21.25,0-26.25,36.26-38.68,37.51S640.07,464,618.82,464s-48.71,86.25-58.74,92.51-17.51-5-38.76-13.75-48.71,18.75-73.75,27.49-52.5-6.24-61.25-22.49S357.56,484,340.07,485.24s-35,13.75-45,2.51S251.31,385.24,238.82,384c-8.16-.82-45.56,21.78-70.59,37.58,19.78,17.77,39.44,29.23,44.53,55.62,8.89,46.26,71.17,103.15,144.13,126.34s122.77-41,190.38-37.37S679,564.37,711,512.78Z" fill="#fff" opacity="0.5" style="isolation:isolate"/>

</g>

<g id="b373a570-594e-4f19-bd18-202c80330dc7" data-name="freepik--Stars--inject-2">

<path d="M661.74,264.26a6.53,6.53,0,1,0,6.52,6.54h0A6.52,6.52,0,0,0,661.74,264.26Z" fill="#014D4E" data-primary="true"/>

<path d="M606.89,271.38a3.27,3.27,0,1,0,3.25,3.28v0A3.26,3.26,0,0,0,606.89,271.38Z" fill="#014D4E" data-primary="true"/>

<path d="M673.91,211.17a3.27,3.27,0,1,0,3.25,3.28h0A3.27,3.27,0,0,0,673.91,211.17Z" fill="#014D4E" data-primary="true"/>

<path d="M713.35,266.05a3.27,3.27,0,1,0,3.25,3.28v0A3.26,3.26,0,0,0,713.35,266.05Z" fill="#014D4E" data-primary="true"/>

<path d="M614.32,344.57a6.52,6.52,0,1,0,9,2.25,6.52,6.52,0,0,0-9-2.25Z" fill="#014D4E" data-primary="true"/>

<path d="M584.51,302.29a3.25,3.25,0,1,0,4.47,1.12A3.26,3.26,0,0,0,584.51,302.29Z" fill="#014D4E" data-primary="true"/>

<path d="M670.58,328.86a3.25,3.25,0,1,0,4.47,1.12,3.25,3.25,0,0,0-4.47-1.12Z" fill="#014D4E" data-primary="true"/>

<path d="M643.79,390.88a3.27,3.27,0,1,0,4.48,1.13h0A3.27,3.27,0,0,0,643.79,390.88Z" fill="#014D4E" data-primary="true"/>

<path d="M243.6,284.43a6.52,6.52,0,1,0,9,2.25A6.52,6.52,0,0,0,243.6,284.43Z" fill="#014D4E" data-primary="true"/>

<path d="M213.8,242.13a3.27,3.27,0,1,0,4.48,1.15h0A3.28,3.28,0,0,0,213.8,242.13Z" fill="#014D4E" data-primary="true"/>

<path d="M299.87,268.7a3.27,3.27,0,1,0,4.47,1.14h0A3.26,3.26,0,0,0,299.87,268.7Z" fill="#014D4E" data-primary="true"/>

<path d="M273.06,330.73a3.25,3.25,0,1,0,4.48,1.12,3.25,3.25,0,0,0-4.48-1.12Z" fill="#014D4E" data-primary="true"/>

<path d="M182.8,344.37a6.52,6.52,0,1,0,8.95,2.25,6.53,6.53,0,0,0-8.95-2.25Z" fill="#014D4E" data-primary="true"/>

<path d="M153,302.09a3.26,3.26,0,1,0,4.47,1.12,3.27,3.27,0,0,0-4.47-1.12Z" fill="#014D4E" data-primary="true"/>

<path d="M239.06,328.66a3.25,3.25,0,1,0,4.48,1.11,3.26,3.26,0,0,0-4.48-1.11Z" fill="#014D4E" data-primary="true"/>

<path d="M212.27,390.62a3.26,3.26,0,1,0,4.48,1.13h0A3.27,3.27,0,0,0,212.27,390.62Z" fill="#014D4E" data-primary="true"/>

<path d="M330.41,52.07a6.52,6.52,0,1,0,8.72,3h0A6.53,6.53,0,0,0,330.41,52.07Z" fill="#014D4E" data-primary="true"/>

<path d="M379.45,27.47A3.25,3.25,0,1,0,383.79,29a.36.36,0,0,0,0-.09A3.26,3.26,0,0,0,379.45,27.47Z" fill="#014D4E" data-primary="true"/>

<path d="M345.61,96.73a3.16,3.16,0,1,0,.11-.06Z" fill="#014D4E" data-primary="true"/>

<path d="M286.11,79a3.27,3.27,0,1,0,4.38,1.46v0A3.27,3.27,0,0,0,286.11,79Z" fill="#014D4E" data-primary="true"/>

<path d="M625.1,135.32a6.52,6.52,0,1,0,2.47,8.89v0A6.53,6.53,0,0,0,625.1,135.32Z" fill="#014D4E" data-primary="true"/>

<path d="M573.83,114.55a3.25,3.25,0,1,0,1.23,4.44,3.25,3.25,0,0,0-1.23-4.44Z" fill="#014D4E" data-primary="true"/>

<path d="M650.07,103.16a3.25,3.25,0,1,0,1.23,4.44,3.25,3.25,0,0,0-1.23-4.44Z" fill="#014D4E" data-primary="true"/>

<path d="M665.94,167.93a3.27,3.27,0,1,0-1.22-4.45h0A3.29,3.29,0,0,0,665.94,167.93Z" fill="#014D4E" data-primary="true"/>

<g opacity="0.3">

<path d="M661.74,264.26a6.53,6.53,0,1,0,6.52,6.54h0A6.52,6.52,0,0,0,661.74,264.26Z" fill="#fff"/>

<path d="M606.89,271.38a3.27,3.27,0,1,0,3.25,3.28v0A3.26,3.26,0,0,0,606.89,271.38Z" fill="#fff"/>

<path d="M673.91,211.17a3.27,3.27,0,1,0,3.25,3.28h0A3.27,3.27,0,0,0,673.91,211.17Z" fill="#fff"/>

<path d="M713.35,266.05a3.27,3.27,0,1,0,3.25,3.28v0A3.26,3.26,0,0,0,713.35,266.05Z" fill="#fff"/>

<path d="M614.32,344.57a6.52,6.52,0,1,0,9,2.25,6.52,6.52,0,0,0-9-2.25Z" fill="#fff"/>

<path d="M584.51,302.29a3.25,3.25,0,1,0,4.47,1.12A3.26,3.26,0,0,0,584.51,302.29Z" fill="#fff"/>

<path d="M670.58,328.86a3.25,3.25,0,1,0,4.47,1.12,3.25,3.25,0,0,0-4.47-1.12Z" fill="#fff"/>

<path d="M643.79,390.88a3.27,3.27,0,1,0,4.48,1.13h0A3.27,3.27,0,0,0,643.79,390.88Z" fill="#fff"/>

<path d="M243.6,284.43a6.52,6.52,0,1,0,9,2.25A6.52,6.52,0,0,0,243.6,284.43Z" fill="#fff"/>

<path d="M213.8,242.13a3.27,3.27,0,1,0,4.48,1.15h0A3.28,3.28,0,0,0,213.8,242.13Z" fill="#fff"/>

<path d="M299.87,268.7a3.27,3.27,0,1,0,4.47,1.14h0A3.26,3.26,0,0,0,299.87,268.7Z" fill="#fff"/>

<path d="M273.06,330.73a3.25,3.25,0,1,0,4.48,1.12,3.25,3.25,0,0,0-4.48-1.12Z" fill="#fff"/>

<path d="M182.8,344.37a6.52,6.52,0,1,0,8.95,2.25,6.53,6.53,0,0,0-8.95-2.25Z" fill="#fff"/>

<path d="M153,302.09a3.26,3.26,0,1,0,4.47,1.12,3.27,3.27,0,0,0-4.47-1.12Z" fill="#fff"/>

<path d="M239.06,328.66a3.25,3.25,0,1,0,4.48,1.11,3.26,3.26,0,0,0-4.48-1.11Z" fill="#fff"/>

<path d="M212.27,390.62a3.26,3.26,0,1,0,4.48,1.13h0A3.27,3.27,0,0,0,212.27,390.62Z" fill="#fff"/>

<path d="M330.41,52.07a6.52,6.52,0,1,0,8.72,3h0A6.53,6.53,0,0,0,330.41,52.07Z" fill="#fff"/>

<path d="M379.45,27.47A3.25,3.25,0,1,0,383.79,29a.36.36,0,0,0,0-.09A3.26,3.26,0,0,0,379.45,27.47Z" fill="#fff"/>

<path d="M345.61,96.73a3.16,3.16,0,1,0,.11-.06Z" fill="#fff"/>

<path d="M286.11,79a3.27,3.27,0,1,0,4.38,1.46v0A3.27,3.27,0,0,0,286.11,79Z" fill="#fff"/>

<path d="M625.1,135.32a6.52,6.52,0,1,0,2.47,8.89v0A6.53,6.53,0,0,0,625.1,135.32Z" fill="#fff"/>

<path d="M573.83,114.55a3.25,3.25,0,1,0,1.23,4.44,3.25,3.25,0,0,0-1.23-4.44Z" fill="#fff"/>

<path d="M650.07,103.16a3.25,3.25,0,1,0,1.23,4.44,3.25,3.25,0,0,0-1.23-4.44Z" fill="#fff"/>

<path d="M665.94,167.93a3.27,3.27,0,1,0-1.22-4.45h0A3.29,3.29,0,0,0,665.94,167.93Z" fill="#fff"/>

</g>

</g>

<ellipse cx="441.92" cy="141.46" rx="82.81" ry="64.64" fill="#2f2e41" data-secondary="true"/>

<path d="M500.35,100.85c12.32,10.79,19.81,25,19.81,40.61,0,33.72-35,61.06-78.21,61.06s-78.21-27.34-78.21-61.06c0-21.08,13.68-39.65,34.48-50.62" fill="none" stroke="#fff" stroke-linecap="round" stroke-linejoin="round" stroke-width="1.24"/>

<path d="M408,86.42a94.3,94.3,0,0,1,19.5-5" fill="#263238" stroke="#fff" stroke-linecap="round" stroke-linejoin="round" stroke-width="1.24"/>

<ellipse cx="441.92" cy="156.71" rx="133.93" ry="44.44" fill="#014D4E" data-primary="true"/>

<ellipse cx="441.92" cy="172.73" rx="190.83" ry="44.44" fill="#014D4E" data-primary="true"/>

<ellipse cx="441.92" cy="172.73" rx="190.83" ry="44.44" opacity="0.2"/>

<ellipse cx="441.92" cy="184.58" rx="220.45" ry="44.44" fill="#2f2e41" data-secondary="true"/>

<ellipse cx="442.04" cy="184.57" rx="165.11" ry="31.06" fill="#014D4E" data-primary="true"/>

<ellipse cx="441.92" cy="184.58" rx="73.48" ry="14.81" fill="#263238" stroke="#263238" stroke-linecap="round" stroke-linejoin="round" stroke-width="1.24"/>

<ellipse cx="442.04" cy="151.03" rx="17.51" ry="3.84" fill="#fff"/>

<path d="M279.81,184.31c0,1.43-5.36,2.64-12,2.64s-12-1.19-12-2.64,5.37-2.64,12-2.64S279.81,182.88,279.81,184.31Z" fill="#fff"/>

<path d="M631.73,184.31c0,1.43-5.37,2.64-12,2.64s-11.94-1.21-11.94-2.64,5.36-2.64,12-2.64S631.73,182.88,631.73,184.31Z" fill="#fff"/>

<ellipse cx="550.15" cy="163.31" rx="16.36" ry="3.6" fill="#fff"/>

<ellipse cx="346.72" cy="163.31" rx="16.36" ry="3.6" fill="#fff"/>

<ellipse cx="550.15" cy="205.4" rx="11.98" ry="2.64" fill="#fff"/>

<ellipse cx="346.72" cy="205.4" rx="11.98" ry="2.64" fill="#fff"/>

<path d="M305.25,397.67l-.15,0a.54.54,0,0,1-.37-.67l4-14a.55.55,0,0,1,.68-.37.54.54,0,0,1,.37.67l-4.06,14A.53.53,0,0,1,305.25,397.67Z" fill="#2f2e41" data-secondary="true"/>

<path d="M313.51,369.3a.41.41,0,0,1-.16,0,.54.54,0,0,1-.37-.67l32-110a.54.54,0,1,1,1,.3L314,368.91A.54.54,0,0,1,313.51,369.3Z" fill="#2f2e41" data-secondary="true"/>

<path d="M349,247.28l-.15,0a.55.55,0,0,1-.37-.68L364.56,191a.53.53,0,0,1,.67-.37.55.55,0,0,1,.38.67l-16.14,55.57A.55.55,0,0,1,349,247.28Z" fill="#2f2e41" data-secondary="true"/>

<path d="M584.64,390.55a.55.55,0,0,1-.52-.37L514.89,184.76a.54.54,0,0,1,1-.35l69.23,205.42a.54.54,0,0,1-.34.69Z" fill="#2f2e41" data-secondary="true"/>

<path d="M382.35,293h-.1a.55.55,0,0,1-.44-.63l16.11-89.75a.54.54,0,0,1,1.07.19l-16.11,89.75A.54.54,0,0,1,382.35,293Z" fill="#2f2e41" data-secondary="true"/>

<path d="M523.87,363.16a.54.54,0,0,1-.53-.45L494.57,202.77a.54.54,0,0,1,.44-.63.54.54,0,0,1,.63.44l28.77,159.94a.55.55,0,0,1-.44.63Z" fill="#2f2e41" data-secondary="true"/>

<line x1="441.92" y1="391.38" x2="441.92" y2="409.79" fill="none" stroke="#263238" stroke-linecap="round" stroke-linejoin="round" stroke-width="1.24"/>

<path d="M441.92,169.77a309.57,309.57,0,0,0-42.05,2.66c4.05,8.4,21.78,14.73,43,14.73s38.6-6.2,42.88-14.47A302.76,302.76,0,0,0,441.92,169.77Z" fill="#fff" stroke="#263238" stroke-miterlimit="10" stroke-width="1.24"/>

<path d="M448,618.07l-7.66,8.64s-3,4,2,9.59L458,651.7s12.62,12.12,18.68,6.82c0,0,3-1.52-2.77-9.6,0,0-10.22-9.17-6.5-19.7C467.44,629.22,460.49,626.6,448,618.07Z" fill="#014D4E" data-primary="true"/>

<path d="M411.28,602.79s-11.3,8.78-8,14.08l9.34,9.34a34,34,0,0,0,11.11,9.84s9.08,6.56,11.86,7.32c0,0,4-.23,2.27-4.4,0,0-9.95-20.16-8.55-26.21C429.29,612.76,421.57,611.69,411.28,602.79Z" fill="#014D4E" data-primary="true"/>

<path d="M442.09,332.82a10.72,10.72,0,0,0,1,7.14l2.95,5.72-5.83,8.42-20.54,4.41-1.6-6.55,5.6-16.27,15.74-2.87Z" fill="#f9b499"/>

<path d="M442.09,332.82a7.52,7.52,0,0,1-4.79,2.87s1.92,3.22,5.24,3.11C442.54,338.8,441.22,335.22,442.09,332.82Z" fill="#f7a48b"/>

<path d="M424.71,416.6c-1.32.2-4.39,6.69-7.83,15.11-6.57,16-14.53,39.06-14.53,39.06-2.11,5.15-11.46,0-11.46,0-3-.47-2.81-1.87-2.81-1.87l4-14.5c4.91-23.16,8.65-31.34,8.65-31.34,2.57-5.62,4.92-21.76,4.92-21.76-.1-3.19.07-7.37.31-11.24.34-5.78.85-10.85.85-10.85l.14,1.16a18.23,18.23,0,0,0,.73,3S417.68,408.76,424.71,416.6Z" fill="#014D4E" data-primary="true"/>

<path d="M390.89,470.77s-5.14,8.65-1.4,16.37c0,0,2.85,8.44,10.44,7a1.42,1.42,0,0,0,.49-2.59,15.68,15.68,0,0,0-2.75-1.34,4.83,4.83,0,0,1-1.78-4.82.81.81,0,0,1,1.13-.57,2.13,2.13,0,0,0,2.23-.33.87.87,0,0,0,.23-1.25,6.34,6.34,0,0,1-1.34-5l.24-5.14S393.7,472.64,390.89,470.77Z" fill="#f9b499"/>

<path d="M442,452.86a221,221,0,0,0,2.77,31.62s-2.12,30.88-2.77,37.74c0,0-3.15,3.12-2.84,10,0,0-14.18,11.16-20.58,51a6.47,6.47,0,0,1-1.19,2.86,8.73,8.73,0,0,0-1.56,4.27,3.13,3.13,0,0,1-1,2c-.45.38-.91,1.43-1,4.11a9.69,9.69,0,0,1-2.59,6.34h0s9.81,9,16.82,9.71c0,0,3.83,2.68,2.59-5.78,0,0,4.33-3.93,1-10.74,0,0-.21-3.1,2.48-4.13,0,0,2.61-.75,3.22-9.88a12.2,12.2,0,0,1,.59-3.05,181.91,181.91,0,0,1,8.11-20.57,37.34,37.34,0,0,1,9.12-12c2.91-2.51,7.59-8.29,9.51-20.4,0,0,3.72,9.5-3.92,27.87A154.37,154.37,0,0,0,453,599.93a10.82,10.82,0,0,1-1.35,5.16c-1.09,2-2.3,5.06-1.23,7.68,0,0,2.38.76-2.37,5.3,0,0,11.36,8,19.41,11.15,0,0,2.06,3.1,1.24-4.33,0,0,.2-5,2.47-6.2,0,0,3.51-4.54,0-10.53,0,0-1.21-4.95,1.56-7.64,0,0,1.52-.18,1.56-5.21a6.28,6.28,0,0,1,.44-2.31c1.86-4.58,8.65-22,8.83-32.74,0,0,2.89-.62,1.65-5,0,0,3.51-2.69,3.51-9.71,0,0,2.37-5.16,2.94-19.4,0,0,5.26-10.13,10.24-43.67,0,0,2.58-19.84-2.41-37.64l-5.81-7.47L450.4,450.63l-6.29-4.13Z" fill="#2f2e41" data-secondary="true"/>

<path d="M437.3,335.69l-13.75-.83-6.77-.4s-8.57-15.58-7.76-15.84,5.4-3.24,5.4-3.24.66-.12,1.63-.25c1.94-.24,5.16-.48,7.11.25,0,0,4-3.43,6.67,2.17,0,0,11.2,2.93,13.07,9.07C442.9,326.62,444.77,334.62,437.3,335.69Z" fill="#f9b499"/>

<path d="M431.7,340a7.87,7.87,0,0,1,1.22,3.94,2.47,2.47,0,0,0,2.38,2.32,32.39,32.39,0,0,0,6-.55l-13.58,10.2-6.66-.31s-.77-8.37,0-8.52,5.62-9.42,5.62-9.42S427.75,339.69,431.7,340Z" fill="#f7a48b"/>

<path d="M424.71,416.6c-1.32.2-4.39,6.69-7.83,15.11-2.16-2.71-6.67-10-5.6-22.68,0,0,.41-12.48-5.34-18.94v0c.34-5.78.85-10.85.85-10.85l.14,1.16a18.23,18.23,0,0,0,.73,3S417.68,408.76,424.71,416.6Z" opacity="0.3"/>

<path d="M456.91,459.58a12,12,0,0,0-1.54,8,13,13,0,0,0,4.06,7.05c1,.95,2.15,1.7,3.21,2.72a10.58,10.58,0,0,1,2.41,3.57,10.15,10.15,0,0,1,.76,4.24,16.34,16.34,0,0,1-.62,4.24c-1.53,5.35-1.44,11.06-.7,16.57.11.68.21,1.38.34,2.06l.39,2.07a8.46,8.46,0,0,1-.4,4.24,12.89,12.89,0,0,0,.14,8.21,12.76,12.76,0,0,1-.48-8.3,8.18,8.18,0,0,0,.29-4.07l-.44-2c-.14-.69-.26-1.39-.39-2.08a47.61,47.61,0,0,1-.61-8.44,33.63,33.63,0,0,1,1.16-8.4,15.62,15.62,0,0,0,.63-4.06,9.32,9.32,0,0,0-.68-4,10,10,0,0,0-2.24-3.38c-1-.93-2.15-1.77-3.16-2.77a13.52,13.52,0,0,1-4-7.38A12,12,0,0,1,456.91,459.58Z" opacity="0.3"/>

<path d="M496.4,446.63c-14.61,5.14-54.37,6.23-54.37,6.23-1.8-9.49-1.43-15.71-.85-19.15a3,3,0,0,0-2.3-3.36c-7.33-1.73-14.17-13.75-14.17-13.75-7-7.84-17-33.27-17-33.27a17.31,17.31,0,0,1-.74-3c-1.87-11.82,9.93-19.22,9.93-19.22-.8-2.17,1.63-4.33,1.63-4.33,2.1-1.11,4.16-2.08,5.86-2.84a42,42,0,0,0,7-4.08c6.66-4.65,12.25-4.45,12.25-4.45,1.9-1.62,6.75,4.06,6.75,4.06a26.25,26.25,0,0,1,14.08,7.31c13.8,15.15,18.4,36.52,18.4,36.52,9.19,16.77,18.12,43.55,18.12,43.55C504.52,443.93,496.4,446.63,496.4,446.63Z" fill="#014D4E" data-primary="true"/>

<path d="M466.65,472.49s1.35,12.29,8.92,16.35a22.62,22.62,0,0,0,12,4.78,3.79,3.79,0,0,0,3.93-2.45,3.57,3.57,0,0,0-1.16-3.84s-9.21-7.25-9.24-15.07a.42.42,0,0,1,.81-.16c1.24,3.35,4.23,10.14,8,9.86,0,0,2.48-.36.93-3,0,0-3.25-3.87-3.72-7.59,0,0-1.37-5.57-5.8-8.51C481.25,462.87,469.78,461.21,466.65,472.49Z" fill="#f9b499"/>

<path d="M489,493.46a23.68,23.68,0,0,1-4-2.45,28.5,28.5,0,0,1-3.55-3.13c-.56-.56-1.07-1.17-1.59-1.76s-1-1.23-1.4-1.91a22.14,22.14,0,0,1-2.25-4.14c.46.63.83,1.32,1.31,1.94l.67.95c.23.32.48.62.72.92a40.77,40.77,0,0,0,3.06,3.5,44.38,44.38,0,0,0,3.38,3.19c.58.51,1.19,1,1.81,1.48S488.38,493,489,493.46Z" fill="#f7a48b"/>

<path d="M471.74,451s11.44-1,17.28-2.41c0,0-14.68-31.27-16.44-49.54L459,409.92Z" opacity="0.2"/>

<path d="M426.09,332.76l-2.54,2.1-6.77-.4s-8.57-15.58-7.76-15.84,5.4-3.24,5.4-3.24.66-.12,1.63-.25c0,0,1.9,3.88,2,6C418.09,321.16,428.88,317.44,426.09,332.76Z" fill="#f7a48b"/>

<path d="M403.49,315.2c-3.31,4.85-13.15,21.44-2.74,34.1,0,0,8.54,8.11,17.74,7.52l5.86-2.84,5.29-8.19a3.71,3.71,0,0,0-.22-4.33c-1.86-2.29-4.38-6.07-3.33-8.71,0,0,1.34-14.67-9.6-9.6,0,0-1.84-16.34-10-11A10.78,10.78,0,0,0,403.49,315.2Z" fill="#2f2e41" data-secondary="true"/>

<ellipse cx="431.04" cy="335.69" rx="5.6" ry="4.27" fill="#f9b499"/>

<ellipse cx="431.04" cy="335.69" rx="1.94" ry="1.39" fill="#f7a48b"/>

<path d="M466.65,472.49c.84-2.95,4-10.27,14.6-9.62a138.92,138.92,0,0,1-7.44-30.57s-1.21-25.63-1.48-45.45c0,0,2.3-24.6-9.43-28a8.69,8.69,0,0,0-5.77.42c-4.46,1.88-13.15,7.62-10.61,23.53a41.72,41.72,0,0,1,.57,7c-.08,9.08.43,32.93,7.22,50.13,0,0,6.83,23.77,11.45,32.7A.48.48,0,0,0,466.65,472.49Z" fill="#014D4E" data-primary="true"/>

<path d="M466.65,472.49c.84-2.95,4-10.27,14.6-9.62a138.92,138.92,0,0,1-7.44-30.57s-1.21-25.63-1.48-45.45c0,0,2.3-24.6-9.43-28a8.69,8.69,0,0,0-5.77.42c-4.46,1.88-13.15,7.62-10.61,23.53a41.72,41.72,0,0,1,.57,7c-.08,9.08.43,32.93,7.22,50.13,0,0,6.83,23.77,11.45,32.7A.48.48,0,0,0,466.65,472.49Z" opacity="0.3"/>

<path d="M397.49,493.63a9.79,9.79,0,0,1-2.74-1.91,11.9,11.9,0,0,1-2.06-2.67,12.74,12.74,0,0,1-.73-1.54,9.53,9.53,0,0,1-.46-1.64,8.94,8.94,0,0,1-.05-3.34,25.66,25.66,0,0,0,.85,3.13,16.84,16.84,0,0,0,1.3,2.87A26,26,0,0,0,397.49,493.63Z" fill="#f7a48b"/>

</svg>