<svg
  xmlns="http://www.w3.org/2000/svg"
  viewBox="0 0 600 600"
  width="1.8em"
  height="1.8em"
  version="1.0"
>
  <defs>
    <linearGradient id="td-g" x1="1" y1="0.5" x2="0" y2="0.5">
      <stop offset="0" stop-color="#FFDE59"/>
      <stop offset="1" stop-color="#FF66C4"/>
    </linearGradient>
  </defs>
  <path fill="url(#td-g)" d="M87.3 290.8h187a10.8 10.8 0 0 1 10.3 14.2l-62.8 188.6a20.8 20.8 0 0 1-19.8 14.2H15a10.8 10.8 0 0 1-10.3-14.2l62.8-188.6a20.8 20.8 0 0 1 19.8-14.2z"/>
  <path fill="url(#td-g)" d="M363.1 290.8h187a10.8 10.8 0 0 1 10.3 14.2l-62.8 188.6a20.8 20.8 0 0 1-19.8 14.2H290.8a10.8 10.8 0 0 1-10.3-14.2l62.8-188.6a20.8 20.8 0 0 1 19.8-14.2z"/>
  <path fill="url(#td-g)" d="M111.7 92.2h401a36.7 36.7 0 0 1 25.7 10.5l50.9 49.9a14.7 14.7 0 0 1 0 21l-50.9 49.9a36.7 36.7 0 0 1-25.7 10.5H111.7a6.1 6.1 0 0 1-4.3-10.5l50.9-49.9a14.7 14.7 0 0 0 0-21l-50.9-49.9a6.1 6.1 0 0 1 4.3-10.5z"/>
</svg>
