<svg width="900" height="600" viewBox="0 0 900 600" fill="none" xmlns="http://www.w3.org/2000/svg"><path fill="transparent" d="M0 0h900v600H0z"/><path d="M642.536 412.036V332.28m2.848 159.511c20.451 0 37.029-16.578 37.029-37.029 0-20.451-16.578-37.029-37.029-37.029-20.451 0-37.029 16.578-37.029 37.029 0 20.451 16.578 37.029 37.029 37.029zm-2.848-159.51c18.877 0 34.18-15.304 34.18-34.181 0-18.878-15.303-34.181-34.18-34.181-18.878 0-34.181 15.303-34.181 34.181 0 18.877 15.303 34.181 34.181 34.181zm159.51 0c18.878 0 34.181-15.304 34.181-34.181 0-18.878-15.303-34.181-34.181-34.181-18.877 0-34.181 15.303-34.181 34.181 0 18.877 15.304 34.181 34.181 34.181z" stroke="#E1E4E5" stroke-width="11" stroke-linecap="round" stroke-linejoin="round"/><path d="M644.017 412.036c5.127-19.939 23.357-34.751 44.891-34.637l39.08.114c29.851.114 55.259-19.028 64.602-45.689m-535.145 80.212V332.28m-2.848 159.511c-20.451 0-37.029-16.578-37.029-37.029 0-20.451 16.578-37.029 37.029-37.029 20.451 0 37.029 16.578 37.029 37.029 0 20.451-16.578 37.029-37.029 37.029zm2.848-159.51c-18.877 0-34.18-15.304-34.18-34.181 0-18.878 15.303-34.181 34.18-34.181 18.878 0 34.181 15.303 34.181 34.181 0 18.877-15.303 34.181-34.181 34.181zm-159.51 0c-18.878 0-34.181-15.304-34.181-34.181 0-18.878 15.303-34.181 34.18-34.181 18.878 0 34.182 15.303 34.182 34.181 0 18.877-15.304 34.181-34.181 34.181z" stroke="#E1E4E5" stroke-width="11" stroke-linecap="round" stroke-linejoin="round"/><path d="M255.964 412.036c-5.127-19.939-23.357-34.751-44.891-34.637l-39.08.114c-29.851.114-55.259-19.028-64.602-45.689m532.807-75.92v-79.755m2.849 159.511c20.45 0 37.029-16.579 37.029-37.03 0-20.45-16.579-37.029-37.029-37.029-20.451 0-37.03 16.579-37.03 37.029 0 20.451 16.579 37.03 37.03 37.03zm-2.849-159.511c18.878 0 34.181-15.303 34.181-34.181 0-18.877-15.303-34.181-34.181-34.181-18.877 0-34.181 15.304-34.181 34.181 0 18.878 15.304 34.181 34.181 34.181zm159.511 0c18.878 0 34.181-15.303 34.181-34.181 0-18.877-15.303-34.181-34.181-34.181-18.878 0-34.181 15.304-34.181 34.181 0 18.878 15.303 34.181 34.181 34.181z" stroke="#E1E4E5" stroke-width="11" stroke-linecap="round" stroke-linejoin="round"/><path d="M641.679 255.904c5.128-19.939 23.357-34.751 44.891-34.637l39.08.114c29.852.114 55.259-19.027 64.602-45.688m-530.47 80.211v-79.755m-2.848 159.511c-20.451 0-37.03-16.579-37.03-37.03 0-20.45 16.579-37.029 37.03-37.029 20.45 0 37.029 16.579 37.029 37.029 0 20.451-16.579 37.03-37.029 37.03zm2.848-159.511c-18.877 0-34.181-15.303-34.181-34.181 0-18.877 15.304-34.181 34.181-34.181 18.878 0 34.181 15.304 34.181 34.181 0 18.878-15.303 34.181-34.181 34.181zm-159.51 0c-18.878 0-34.181-15.303-34.181-34.181 0-18.877 15.303-34.181 34.181-34.181 18.877 0 34.181 15.304 34.181 34.181 0 18.878-15.304 34.181-34.181 34.181z" stroke="#E1E4E5" stroke-width="11" stroke-linecap="round" stroke-linejoin="round"/><path d="M258.301 255.904c-5.127-19.939-23.357-34.751-44.891-34.637l-39.08.114c-29.851.114-55.259-19.027-64.602-45.688M299 297.905h156.946c18.173 0 33.042-14.868 33.042-33.041V174" stroke="#E1E4E5" stroke-width="11" stroke-linecap="round" stroke-linejoin="round"/><path d="M599.988 297.905H443.041c-18.172 0-33.041-14.868-33.041-33.041V174" stroke="#E1E4E5" stroke-width="11" stroke-linecap="round" stroke-linejoin="round"/><path d="M451.159 387.664c72.929 0 132.049-59.12 132.049-132.049s-59.12-132.049-132.049-132.049-132.049 59.12-132.049 132.049 59.12 132.049 132.049 132.049z" fill="#6E8AEF"/><path d="m405.585 232.828-22.788 22.787 22.788 22.787m91.149-45.574 22.787 22.787-22.787 22.787m-34.181-49.335-22.788 53.095" stroke="#fff" stroke-width="11" stroke-miterlimit="10" stroke-linecap="round" stroke-linejoin="round"/><path fill-rule="evenodd" clip-rule="evenodd" d="M401.142 444.366h6.474a2.827 2.827 0 0 1 2.825 2.826v6.474a2.827 2.827 0 0 1-2.825 2.825h-6.474a2.836 2.836 0 0 1-2.826-2.825v-6.474c-.013-1.553 1.26-2.826 2.826-2.826zm22.445 0h6.474a2.837 2.837 0 0 1 2.826 2.826v6.474a2.828 2.828 0 0 1-2.826 2.825h-6.474a2.836 2.836 0 0 1-2.826-2.825v-6.474a2.837 2.837 0 0 1 2.826-2.826zm22.461 0h6.474a2.837 2.837 0 0 1 2.826 2.826v6.474a2.828 2.828 0 0 1-2.826 2.825h-6.474a2.836 2.836 0 0 1-2.826-2.825v-6.474c-.013-1.553 1.261-2.826 2.826-2.826zm22.446 0h6.474a2.836 2.836 0 0 1 2.825 2.826v6.474a2.827 2.827 0 0 1-2.825 2.825h-6.474a2.839 2.839 0 0 1-2.839-2.825v-6.474c.013-1.553 1.287-2.826 2.839-2.826zm22.447 0h6.474a2.839 2.839 0 0 1 2.839 2.826v6.474a2.83 2.83 0 0 1-2.839 2.825h-6.474a2.836 2.836 0 0 1-2.825-2.825v-6.474a2.836 2.836 0 0 1 2.825-2.826zm-66.53 24.476h6.474a2.837 2.837 0 0 1 2.826 2.826v6.487a2.837 2.837 0 0 1-2.826 2.826h-6.474a2.829 2.829 0 0 1-2.826-2.826v-6.474a2.823 2.823 0 0 1 2.826-2.839zm22.446 0h6.474a2.836 2.836 0 0 1 2.825 2.826v6.487a2.836 2.836 0 0 1-2.825 2.826h-6.474a2.837 2.837 0 0 1-2.826-2.826v-6.474a2.823 2.823 0 0 1 2.826-2.839zm22.447 0h6.474a2.84 2.84 0 0 1 2.839 2.826v6.487a2.84 2.84 0 0 1-2.839 2.826h-6.474a2.837 2.837 0 0 1-2.826-2.826v-6.474a2.84 2.84 0 0 1 2.826-2.839zm-23.256-50.771h6.474a2.837 2.837 0 0 1 2.826 2.826v6.474a2.828 2.828 0 0 1-2.826 2.826h-6.474a2.837 2.837 0 0 1-2.826-2.826v-6.474c-.013-1.552 1.261-2.826 2.826-2.826zm-22.438 0h6.474a2.837 2.837 0 0 1 2.826 2.826v6.474a2.828 2.828 0 0 1-2.826 2.826h-6.474a2.837 2.837 0 0 1-2.826-2.826v-6.474c-.013-1.552 1.26-2.826 2.826-2.826zm44.884 0h6.474a2.836 2.836 0 0 1 2.825 2.826v6.474a2.827 2.827 0 0 1-2.825 2.826h-6.474a2.84 2.84 0 0 1-2.839-2.826v-6.474c.013-1.552 1.287-2.826 2.839-2.826z" fill="#E1E4E5"/></svg>