<svg width="900" height="600" viewBox="0 0 900 600" fill="none" xmlns="http://www.w3.org/2000/svg"><path fill="transparent" d="M0 0h900v600H0z"/><path d="M500.778 368.861H690.59c26.218 0 47.453 21.235 47.453 47.453v71.18c0 26.217-21.235 47.452-47.453 47.452h-47.453M394.995 351.041H205.184c-26.218 0-47.453 21.235-47.453 47.452v71.18c0 26.217 21.235 47.453 47.453 47.453h47.453m142.358-208.279H205.184c-26.218 0-47.453-21.235-47.453-47.453v-71.179c0-26.218 21.235-47.453 47.453-47.453h47.453M480.73 308.847h189.812c26.217 0 47.453-21.235 47.453-47.453v-71.179c0-26.218-21.236-47.453-47.453-47.453h-47.453" stroke="#E1E4E5" stroke-width="3.855" stroke-linecap="round" stroke-linejoin="round"/><path fill-rule="evenodd" clip-rule="evenodd" d="M324.799 327.094c0 69.208 56.094 125.301 125.302 125.301s125.301-56.093 125.301-125.301-56.093-125.301-125.301-125.301-125.302 56.093-125.302 125.301z" fill="#6E8AEF"/><path d="m361.499 415.696 84.523-84.523a13.91 13.91 0 0 0 4.079-9.843V201.793m-.974 124.744-107.481-62.094" stroke="#fff" stroke-width="18.071" stroke-linecap="round" stroke-linejoin="round"/><path fill-rule="evenodd" clip-rule="evenodd" d="m743.309 93.53-30.233-30.26A21.377 21.377 0 0 0 697.96 57h-76.673c-11.813 0-21.381 9.577-21.381 21.4v149.801c0 11.824 9.568 21.4 21.381 21.4h106.906c11.813 0 21.381-9.576 21.381-21.4V108.66a21.417 21.417 0 0 0-6.265-15.13z" fill="#fff" stroke="#E1E4E5" stroke-width="3.855" stroke-linecap="round" stroke-linejoin="round"/><rect x="629.061" y="189.269" width="91.952" height="10.818" rx="5.409" fill="#E1E4E5"/><rect x="629.061" y="167.791" width="91.952" height="10.818" rx="5.409" fill="#E1E4E5"/><rect x="629.061" y="146.261" width="91.952" height="10.818" rx="5.409" fill="#E1E4E5"/><rect x="629.061" y="124.73" width="91.952" height="10.818" rx="5.409" fill="#E1E4E5"/><rect x="629.062" y="103.2" width="91.952" height="10.818" rx="5.409" fill="#E1E4E5"/><rect x="629.061" y="210.904" width="91.952" height="10.818" rx="5.409" fill="#E1E4E5"/><path fill-rule="evenodd" clip-rule="evenodd" d="m274.404 93.53-30.233-30.26A21.38 21.38 0 0 0 229.054 57h-76.673C140.568 57 131 66.577 131 78.4v149.801c0 11.824 9.568 21.4 21.381 21.4h106.906c11.813 0 21.381-9.576 21.381-21.4V108.66a21.416 21.416 0 0 0-6.264-15.13z" fill="#fff" stroke="#E1E4E5" stroke-width="3.855" stroke-linecap="round" stroke-linejoin="round"/><rect x="160.156" y="189.269" width="91.952" height="10.818" rx="5.409" fill="#E1E4E5"/><rect x="160.156" y="167.791" width="91.952" height="10.818" rx="5.409" fill="#E1E4E5"/><rect x="160.156" y="146.261" width="91.952" height="10.818" rx="5.409" fill="#E1E4E5"/><rect x="160.156" y="124.73" width="91.952" height="10.818" rx="5.409" fill="#E1E4E5"/><rect x="333.71" y="167.797" width="231.668" height="11.138" rx="5.569" fill="#E1E4E5"/><rect x="333.71" y="505.857" width="231.668" height="11.138" rx="5.569" fill="#E1E4E5"/><rect x="160.156" y="103.2" width="91.952" height="10.818" rx="5.409" fill="#E1E4E5"/><rect x="333.71" y="146.635" width="231.668" height="11.138" rx="5.569" fill="#E1E4E5"/><rect x="333.71" y="484.696" width="231.668" height="11.138" rx="5.569" fill="#E1E4E5"/><rect x="160.156" y="210.904" width="91.952" height="10.818" rx="5.409" fill="#E1E4E5"/><path fill-rule="evenodd" clip-rule="evenodd" d="m763.358 387.571-30.233-30.26a21.377 21.377 0 0 0-15.117-6.27h-76.673c-11.813 0-21.381 9.576-21.381 21.4v149.801c0 11.823 9.568 21.4 21.381 21.4h106.906c11.813 0 21.381-9.577 21.381-21.4V402.7a21.413 21.413 0 0 0-6.264-15.129z" fill="#fff" stroke="#E1E4E5" stroke-width="3.855" stroke-linecap="round" stroke-linejoin="round"/><rect x="649.109" y="483.309" width="91.952" height="10.818" rx="5.409" fill="#E1E4E5"/><rect x="649.109" y="461.831" width="91.952" height="10.818" rx="5.409" fill="#E1E4E5"/><rect x="649.109" y="440.301" width="91.952" height="10.818" rx="5.409" fill="#E1E4E5"/><rect x="649.109" y="418.771" width="91.952" height="10.818" rx="5.409" fill="#E1E4E5"/><rect x="649.11" y="397.241" width="91.952" height="10.818" rx="5.409" fill="#E1E4E5"/><rect x="649.109" y="504.944" width="91.952" height="10.818" rx="5.409" fill="#E1E4E5"/><path fill-rule="evenodd" clip-rule="evenodd" d="m294.452 387.571-30.233-30.26a21.377 21.377 0 0 0-15.117-6.27h-76.673c-11.813 0-21.381 9.576-21.381 21.4v149.801c0 11.823 9.568 21.4 21.381 21.4h106.906c11.814 0 21.382-9.577 21.382-21.4V402.7a21.414 21.414 0 0 0-6.265-15.129z" fill="#fff" stroke="#E1E4E5" stroke-width="3.855" stroke-linecap="round" stroke-linejoin="round"/><rect x="180.204" y="483.309" width="91.952" height="10.818" rx="5.409" fill="#E1E4E5"/><rect x="180.204" y="461.831" width="91.952" height="10.818" rx="5.409" fill="#E1E4E5"/><rect x="180.204" y="440.301" width="91.952" height="10.818" rx="5.409" fill="#E1E4E5"/><rect x="180.204" y="418.771" width="91.952" height="10.818" rx="5.409" fill="#E1E4E5"/><rect x="180.204" y="397.241" width="91.952" height="10.818" rx="5.409" fill="#E1E4E5"/><rect x="180.204" y="504.944" width="91.952" height="10.818" rx="5.409" fill="#E1E4E5"/></svg>