<svg width="900" height="600" viewBox="0 0 900 600" fill="none" xmlns="http://www.w3.org/2000/svg"><g clip-path="url(#a)"><path fill="transparent" d="M0 0h900v600H0z"/><rect x="614.332" y="385.895" width="154.657" height="140.398" rx="20" fill="#6E8AEF"/><rect x="516" y="350.795" width="154.657" height="175.497" rx="20" fill="#6E8AEF"/><rect x="397.154" y="401.251" width="154.657" height="125.042" rx="20" fill="#6E8AEF"/><path fill-rule="evenodd" clip-rule="evenodd" d="M404.605 484.369s6.833 13.8 1.231 18.149c-5.609 4.349-20.427 12.501-20.427 12.501l39.257-2.468-8.726-30.098-11.335 1.916z" fill="#F8AE9D"/><path fill-rule="evenodd" clip-rule="evenodd" d="M420.777 496.856c-1.235.59.796 6.135-3.55 5.745-4.346-.388-7.074-6.12-10.279-5.748-3.205.372-5.239 6.144-11.341 10.164-6.101 4.021-15.147 8.816-14.541 12.858.607 4.043 14.842 5.125 22.053 3.787 7.212-1.337 10.578-4.236 15.257-4.005 4.679.231 7.619-.342 9.086-3.346 1.466-3.005-5.259-20.135-6.685-19.455zm42.966-134.121c-11.885.531-78.034 15.161-90.052 17.647-12.018 2.486-22.178 15.936-13.014 31.51 10.293 17.483 36.851 67.134 43.299 78.327 3.191 5.54 19.292 2.434 15.51-6.865-7.05-17.333-10.324-60.877-28.299-76.754 0 0 60.449 10.521 86.561-1.53 18.977-8.76 14.684-43.618-14.005-42.335z" fill="#374A8F"/><path fill-rule="evenodd" clip-rule="evenodd" d="M380.834 288.547s.135-7.065-3.248-12.119c-3.383-5.054-3.517-10.422-6.077-10.246-2.56.175-.025 12.653-.025 12.653s-3.249-1.241-5.582-2.811c-2.334-1.569-9.41-9.308-11.063-7.936-2.804 2.336 1.712 15.516 4.171 18.151 2.468 2.636 14.646 10.001 14.646 10.001l35.864 36.13 5.363-19.18-34.049-24.643z" fill="#F8AE9D"/><path fill-rule="evenodd" clip-rule="evenodd" d="M452.568 285.358c-5.528 12.823-15.651 36.379-19.824 43.407-5.23 8.801-13.477 12.679-23.133 6.149-2.021-1.366-7.822-6.145-7.822-6.145.858-8.365 3.983-15.357 9.37-20.978l3.659 3.027s10.375-26.598 18.722-42.005c7.228-13.33 27.444-2.95 19.028 16.545zm23.895-49.775v11.347l8.333-6.709s2.561-10.871 4.644-18.945c1.306-5.064 4.488-22.199-8.323-21.397-10.495-18.5-41.06-7.05-41.304 15.552-.292 27.185-.053 37.769-.053 37.769 17.283.992 27.012-1.507 36.703-17.617z" fill="#374A8F"/><path fill-rule="evenodd" clip-rule="evenodd" d="M484.977 257.187s-7.752-1.82-8.02-14.52c-.269-12.701-.081-17.036-.081-17.036l-17.073-.308s-.186 14.154-.189 19.274c-.007 12.448-9.161 13.469-9.161 13.469s1.564 10.271 17.035 11.14c12.079.681 17.489-12.019 17.489-12.019z" fill="#F8AE9D"/><path fill-rule="evenodd" clip-rule="evenodd" d="M480.857 219.289c7.616-.295 6.374 10.855-1.538 10.84 0 0-4.596 15.839-20.55 15.839-12.958 0-13.8-18.461-13.918-22.144-.126-3.926-.142-16.826-.142-16.826l36.444-.017-.296 12.308z" fill="#F8AE9D"/><path fill-rule="evenodd" clip-rule="evenodd" d="M481.446 219.215c-3.157.521-2.774 2.611-3.632 2.428-4.358-.927-22 .296-24.271-9.405-2.826 6.06-3.517 7.55-9.741 9.177v-17.76l39.364-3.776s-.611 19.152-1.72 19.336z" fill="#374A8F"/><path fill-rule="evenodd" clip-rule="evenodd" d="M483.243 255.888c-9.727 5.957-20.972 8.142-31.441 1.672-17.083 33.685-21.341 73.876-17.232 118.298 24.912 9.862 45.848 7.922 63.673-3.35l-15-116.62z" fill="#6E8AEF"/><path fill-rule="evenodd" clip-rule="evenodd" d="M362.02 484.923s.206 16.243-13.178 22.316c-13.376 6.072-22.906 5.706-21.693 10.402 1.213 4.694 36.029 4.504 39.28.833 2.772-3.124 8.798-32.208 10.457-29.984l-14.866-3.567z" fill="#F8AE9D"/><path fill-rule="evenodd" clip-rule="evenodd" d="M371.741 507.862c-2.051-1.476-3.776 7.035-9.347 4.668-5.572-2.366-1.178-10.189-4.684-11.632-3.507-1.443-10.277 6.315-19.27 8.2-8.992 1.884-16.294 3.534-18.369 7.034-1.787 3.009 0 3.97 0 3.97s8.657 4.323 14.037 5.275c7.814 1.382 30.399 2.303 32.874-.218 1.52-1.546 5.785-16.558 4.759-17.297zm129.24-150.148s17.278 36.49-7.004 49.021c-23.483 12.117-93.782-2.215-93.782-2.215s1.256 10.114 0 19.134c-3.281 23.559-18.884 62.809-22.186 67.741-4.565 6.82-18.472 1.677-18.734-4.002-.262-5.679 10.484-78.208 12.118-92.039 1.626-13.831 6.758-15.84 21.748-19.621 3.444-.869 44.17-10.99 47.901-10.695 32.056 2.535 59.939-7.324 59.939-7.324z" fill="#374A8F"/><path fill-rule="evenodd" clip-rule="evenodd" d="M482.818 255.915c-16.11 52.773-25.772 127.592 24.543 114.576-26.728-49.21 9.606-71.358 1.371-96.79-2.816-8.696-25.704-18.469-25.914-17.786zm-30.163 1.275c-6.148 15.42-9.103 27.518-11.86 50.151-2.3 18.85-1.149 57.749-1.149 57.749l-7.597 1.494s-5.431-60.097-3.616-67.835c3.048-12.984 5.112-20.571 9.136-32.441 2.216-6.515 15.086-9.118 15.086-9.118z" fill="#374A8F"/><path fill-rule="evenodd" clip-rule="evenodd" d="M479.437 315.826s-9.92-9.932-13.355-11.085c-3.435-1.152-22.253-2.537-22.125.068.144 2.79 12.253 2.629 13.372 4.002 1.12 1.372 2.677 12.057 6.909 13.11 4.225 1.054 12.981 4.172 12.981 4.172l38.977 20.139-4.153-20.137-32.606-10.269z" fill="#F8AE9D"/><path fill-rule="evenodd" clip-rule="evenodd" d="M509.29 273.773c11.823 16.686 21.917 42.103 25.792 52.013 3.875 9.909-.034 24.856-17.072 21.921-2.028-.349-5.328-1.633-5.328-1.633-6.265-8.587-7.363-15.96-5.025-22.525l2.203.931s-16.934-30.016-21.069-38.062c-6.906-13.438 10.085-27.347 20.499-12.645z" fill="#374A8F"/><path fill-rule="evenodd" clip-rule="evenodd" d="M507.937 187.879a6 6 0 0 1 6-6h48.327a6 6 0 0 1 6 6v34.068a6 6 0 0 1-6 6h-39.1c-.609 0-1.204.186-1.705.532l-11.954 8.257a1 1 0 0 1-1.568-.823v-48.034z" fill="#6E8AEF"/><path d="M524.292 197.332a2 2 0 0 0-2 2v.194a2 2 0 0 0 2 2h27.615a2 2 0 0 0 2-2v-.194a2 2 0 0 0-2-2h-27.615zm0 10.969a2 2 0 0 0-2 2v.193a2 2 0 0 0 2 2h16.647a2 2 0 0 0 2-2v-.193a2 2 0 0 0-2-2h-16.647z" fill="#fff" stroke="#fff" stroke-width="2"/><path fill-rule="evenodd" clip-rule="evenodd" d="M733.812 166a6 6 0 0 1 6-6h48.328a6 6 0 0 1 6 6v34.068a6 6 0 0 1-6 6h-39.1c-.609 0-1.204.185-1.705.532l-11.954 8.256a1 1 0 0 1-1.569-.822V166z" fill="#6E8AEF"/><path d="M750.168 175.453a2 2 0 0 0-2 2v.194a2 2 0 0 0 2 2h27.615a2 2 0 0 0 2-2v-.194a2 2 0 0 0-2-2h-27.615zm0 10.968a2 2 0 0 0-2 2v.194a2 2 0 0 0 2 2h16.646a2 2 0 0 0 2-2v-.194a2 2 0 0 0-2-2h-16.646z" fill="#fff" stroke="#fff" stroke-width="2"/><path fill-rule="evenodd" clip-rule="evenodd" d="M145.974 94.646a6 6 0 0 0-6-6H91.647a6 6 0 0 0-6 6v34.068a6 6 0 0 0 6 6h39.099c.609 0 1.204.186 1.705.532l11.954 8.257a1 1 0 0 0 1.569-.823V94.646z" fill="#6E8AEF"/><path d="M129.617 104.099a2 2 0 0 1 2 2v.194a2 2 0 0 1-2 2h-27.615a2 2 0 0 1-2-2v-.194a2 2 0 0 1 2-2h27.615zm0 10.969a2 2 0 0 1 2 2v.193a2 2 0 0 1-2 2H112.97a2 2 0 0 1-2-2v-.193a2 2 0 0 1 2-2h16.647z" fill="#fff" stroke="#fff" stroke-width="2"/><path fill-rule="evenodd" clip-rule="evenodd" d="M319.277 182.395a6 6 0 0 1 6-6h48.327a6 6 0 0 1 6 6v34.068a6 6 0 0 1-6 6h-39.1c-.609 0-1.203.185-1.705.531l-11.954 8.257a1 1 0 0 1-1.568-.822v-48.034z" fill="#6E8AEF"/><path d="M335.633 191.848a2 2 0 0 0-2 2v.193a2 2 0 0 0 2 2h27.615a2 2 0 0 0 2-2v-.193a2 2 0 0 0-2-2h-27.615zm0 10.968a2 2 0 0 0-2 2v.194a2 2 0 0 0 2 2h16.647a2 2 0 0 0 2-2v-.194a2 2 0 0 0-2-2h-16.647z" fill="#fff" stroke="#fff" stroke-width="2"/><path d="M212.957 125.043c-.67 2.676.219 5.459 1.683 7.796 1.035 1.652 2.482-.172 4.591-.464 3.264-.457 5.331-3.912 6.037-12.328.327-6.148.173-9.215-.17-9.751-1.219-1.921-4.354-2.564-6.827-2.379" fill="#374A8F"/><path fill-rule="evenodd" clip-rule="evenodd" d="M218.882 490.853s-.198 12.639 7.603 17.129c7.801 4.49 19.887 12.832 19.887 12.832l-45.977 1.55 1.311-31.625 17.176.114z" fill="#F8AE9D"/><path fill-rule="evenodd" clip-rule="evenodd" d="m198.791 504.781-.748 20.504h10.679l.732-2.641s4.021-.164 6.344.977c2.456 1.207 2.786 1.792 2.786 1.792l33.874.071s1.671-6.627-8.655-11.421c-10.325-4.794-17.844-11.599-19.272-12.296-1.438-.701-4.341-1.098-6.385.551-2.043 1.648-3.66 5.981-8.291 6.117-5.961.175-9.386-7.122-11.064-3.654zm-13.203-220.207s12.549 106.48 12.939 113.882c.391 7.402-4.03 20.176-3.944 34.022.086 13.846 1.614 62.644 1.614 62.644l27.683.451s11.634-88.181 11.759-101.405c.125-13.223 1.192-108.321 1.192-108.321l-51.243-1.273z" fill="#374A8F"/><path fill-rule="evenodd" clip-rule="evenodd" d="m151.727 488.632-5.395 32.762 19.888-.1.629-33.176-15.122.514z" fill="#F8AE9D"/><path fill-rule="evenodd" clip-rule="evenodd" d="M148.37 503.067a2.748 2.748 0 0 0-2.162 2.594l-.202 6.125c-2.852 3.173-4.179 12.419-4.287 13.205a.545.545 0 0 0-.006.114c.263 4.504 29.855 4.418 32.128.133a.62.62 0 0 0 .05-.401c-.244-1.513-1.862-10.846-5.049-13.346l-.023-6.056a2.744 2.744 0 0 0-2.033-2.642l-4.171-1.122c-2.907-4.251-6.869-4.101-10.264.531l-3.981.865zm13.121-217.49s-8.862 72.648-8.742 86.56c.12 13.913 2.728 20.023-.983 30.003-3.711 9.98-6.875 89.641-6.875 89.641l27.44 2.285s17.53-85.241 19.436-97.059c1.906-11.819 25.466-112.433 25.466-112.433l-55.742 1.003z" fill="#374A8F"/><path fill-rule="evenodd" clip-rule="evenodd" d="M298.321 154.955s-2.291-12.767-1.467-15.353c.703-2.234 7.354-5.457 7.354-5.457s11.567-18.272 14.099-16.412c2.059 1.509-6.024 14.98-6.024 14.98s7.371 7.733 7.268 11.19c-.103 3.457-12.031 14.279-12.031 14.279l-9.199-3.227zm-118.885 3s7.618-1.788 7.883-14.271c.264-12.483.078-16.743.078-16.743l18.061-.303s.182 13.911.186 18.943c.007 10.955 8.142 13.915 8.142 13.915s-.676 11.978-15.881 12.833c-11.872.669-18.469-14.374-18.469-14.374z" fill="#F8AE9D"/><path fill-rule="evenodd" clip-rule="evenodd" d="M185.739 120.631c-7.486-.29-6.265 10.669 1.512 10.654 0 0 8.357 16.804 21.477 16.847 6.32.021 8.384-5.608 10.278-9.56 1.895-3.952 3.286-9.864 3.401-13.483.124-3.86.14-16.538.14-16.538l-37.099-.017.291 12.097z" fill="#F8AE9D"/><path fill-rule="evenodd" clip-rule="evenodd" d="M214.071 158.753s19.461 6.075 24.147 13.331c15.103 13.269 33.992 31.489 33.992 31.489s17.991-45.155 23.873-50.303c4.024-3.523 12.043.833 13.536 5.309 1.92 5.75-10.403 39.473-16.223 55.4-1.127 3.086-2.011 5.503-2.499 6.92-3.549 10.296-12.183 16.201-22.691 9.657-4.235-2.637-16.839-11.28-27.592-19.116-.169 8.232-.452 16.906-.721 25.144-.654 20.015-1.223 37.457.145 39.724 6.783 11.233-2.235 18.944-32.092 21.778-29.857 2.833-56.345.513-51.539-14.478 1.002-3.125.99-9.848.49-18.583a350.78 350.78 0 0 1-8.769-.578c-12.461-.982-21.676-6.336-22.961-20.242-.901-9.737 17.651-55.451 24.607-70.483 1.627-3.517 4.144-5.707 6.995-6.799.663-.74 1.411-1.26 2.25-1.537 5.11-1.684 23.431-9.381 23.431-9.381l21.794 14.26 9.827-11.512zm-59.193 80.469-.049.127.061.008-.012-.135z" fill="#6E8AEF"/><path fill-rule="evenodd" clip-rule="evenodd" d="M203.236 251.288s6.647-1.337 9.368-3.473c2.72-2.135 10.959-3.645 10.959-3.645l-2.635 5.551s20.192-1.896 20.67.096c.479 1.992-5.362 4.158-5.362 4.158s-2.88 5.38-5.668 8.498c-2.638 2.951-15.745 2.6-20.34.758-3.97-1.591-8.287-.795-8.287-.795l1.295-11.148z" fill="#F8AE9D"/><path d="M187.773 109.051c1.094 1.432 3.023 1.747 4.611 2.03 2.136.38 3.193 1.173 4.301 3.301.702 1.359 1.404 2.847 2.66 3.583 1.024.603.992-.921 1.144-2.099a2.692 2.692 0 0 1 .064-.327c.245-.941 1.244-.784 1.534.145.266.841.835 1.553 1.559 1.95.118.064.244.121.369.097.17-.024.303-.186.414-.332.231-.303.46-.687.696-1.093.782-1.345 2.273-.873 3.147.414.547.8 1.197 1.626 2.091 1.812.288.064.65.016.783-.267.17-.348-.096-.696-.051-1.052.036-.332.177-.477.332-.76.605-1.092 2.008-1.132 2.863-.222a31.635 31.635 0 0 0 1.859 1.823c.273.243.672.486.946.243.148-.129.185-.348.214-.558.155-1.027.303-2.055.458-3.082.089-.575.392-1.327.909-1.181.251.073.399.339.54.582.17.308 3.207 3.81 3.266 3.543.473-1.99 1.441-3.802 1.914-5.792 3.059-12.805-10.516-23.103-20.883-23.16-2.306-.016-4.412.022-6.651.564-2.387.582-4.906 1.507-7.071 2.81-3.037 1.82-5.336 5.128-4.744 9.076" fill="#374A8F"/><path d="M196.204 104.912c1.462 1.672 1.848 4.024 1.985 6.246.2 3.352-.072 6.833-1.606 9.809-.437.846-.759 5.038-1.433 4.806-.215-.073-.179-3.323-.745-5.074-.874-2.715-4.902-3.75-6.715-2.034-2.895 2.729-1.197 6.044-.237 8.107.574 1.245 1.484 2.642 1.642 3.959.193 1.687.25 7.832-.839 9.266-.91 1.201-1.877-4.604-2.702-5.748-6.098-8.52-11.946-30.213-1.533-34.918 1.584-.717 6.471-1.086 7.954-.174" fill="#374A8F"/><path d="M799.294 403.128c7.865-2.657 14.682-8.316 18.662-15.576 1.124-2.002 2.043-4.302 1.741-6.578-.078-.464-.195-1.012-.613-1.229-.375-.216-.882-.098-1.304.022-13.137 3.545-27.026 9.518-40.814 8.887-.631-.009-1.261-.061-1.812.183-.677.284-1.108.909-1.412 1.577-1.043 2.172-1.947 6.281-1.605 8.726.418 2.909 3.231 3.33 5.703 3.957 7.04 1.789 14.435 2.407 21.454.031z" fill="#F8AE9D"/><path d="M800.508 386.824c1.058-.446 2.159-.892 3.295-.917 1.136-.025 2.389.583 2.751 1.682.241.761.018 1.557-.287 2.268-.827 1.838-2.28 3.33-3.815 4.653-5.88 4.959-13.414 7.958-21.119 8.429-3.411.201-6.982-.106-9.986-1.708 1.5-1.828 1.203-4.441 1.364-6.752.482-6.765 6.248-4.196 10.875-4.21 5.808-.122 11.588-1.254 16.922-3.445z" fill="#F8AE9D"/><path d="m624.5 336.783-.264.753c-1.848 5.357-3.278 10.888-3.869 16.558-1.084 10.416.961 22.605 8.797 30.17 10.447 10.086 27.209 11.645 40.833 9.244a34.484 34.484 0 0 0 15.289-6.793c4.44 4.022 9.211 8.427 13.182 12.904a100.331 100.331 0 0 0 22.593-11.267c16.627 7.614 33.586 12.752 51.492 16.473a69.448 69.448 0 0 0 4.279-15.836c.14-.881-11.02-8.413-12.307-9.484-3.863-3.256-11.911-10.698-11.911-10.698s10.143-8.638 14.58-12.693a211.303 211.303 0 0 0 13.494-13.257c3.55-3.816 7.018-7.844 9.194-12.606 2.175-4.721 2.975-10.304 1.157-15.211-5.742-15.274-28.918-9.905-39.684-4.641-8.9 4.366-16.695 10.726-24.197 17.174-3.025 2.562-6.01 5.209-8.953 7.815-2.319-2.391-4.88-5.501-7.071-8.016-2.357-2.728-5.052-5.293-8.309-6.899-3.423-1.735-6.582-1.488-10.234-2.007-1.637-.235-3.228-.722-4.823-.998-4.782-.872-9.844.06-14.046 2.521-3.99 2.337-7.229 5.106-11.912 6.003-5.316 1.013-11.491.414-16.823-.298-4.785-.662-9.649-1.745-14.417-.808-1.983.391-2.74 3.155-3.395 4.744-.876 2.3-1.796 4.684-2.675 7.153zm42.243-176.171s-12.871-2.047-16.328 20.676c-3.84 25.261-14.096 21.105-30.383 41.617-9.518 11.986.499 33.153 20.854 32.733 20.356-.409 38.739-6.294 50.448-3.777 11.709 2.518 12.352-27.472.799-36.724-11.553-9.253 13.079-35.824-1.93-47.657-15.01-11.832-23.46-6.868-23.46-6.868z" fill="#374A8F"/><path d="M589.804 260.81c-1.174-2.412-1.103-5.215-.679-7.83 1.835-11.224 9.701-20.604 18.717-27.477 9.046-6.891 19.4-11.811 28.917-17.986 2.47-1.608 4.946-3.34 7.782-4.21 2.836-.869 6.132-.775 8.473 1.053 1.654 1.284 2.609 3.268 3.165 5.252 1.219 4.345.752 8.946.008 13.354-.929 5.559-2.293 11.061-4.533 16.17-1.796 4.122-4.719 8.363-9.112 9.171-1.271 4.925-3.888 9.542-7.559 13.074-4.199 4.05-9.522 6.698-15.047 8.547-5.09 1.708-10.657 2.823-15.777 1.229-3.039-.928-5.716-2.715-8.334-4.537-2.335-1.552-4.759-3.251-6.021-5.81zm46.003-7.485 3.005-4.77c-.64.066-1.245.19-1.856.438-1.649.714-2.643 3.313-1.149 4.332z" fill="#374A8F"/><path d="M691.489 180.595c.155.844.184 1.727.127 2.736a56.226 56.226 0 0 1-3.753 17.191c-1.312 3.261-2.917 6.476-5.188 9.176-.942 1.121-2.009 2.157-3.404 2.556-1.436.399-3.246.456-4.671.098-1.257 5.197-.732 15.006 3.755 18.692 1.371 1.115 3.001 1.813 4.632 2.427 3.179 1.226 6.488 2.159 9.8 2.883 3.774.814 7.887 1.424 10.538 4.198.331.342.66.81.527 1.27-.088.293-.302.501-.557.665-2.087 1.693-4.667 2.621-7.247 3.508-4.524 1.53-9.171 2.805-13.895 3.659-4.936.892-10.032 1.32-15.03.781-3.864-.437-7.677-1.421-11.184-3.157-3.675-1.822-7.438-3.31-11.24-5.05-3.216-1.479-6.388-3.168-9.87-3.768 1.646-3.13 5.08-4.887 8.5-5.718 3.419-.789 6.996-.861 10.456-1.524 1.139-.235 2.279-.512 3.257-1.212 2.68-1.937 1.946-6.239 1.989-9.057l.135-8.916c-.398-4.255-2.153-7.815-3.692-11.709-2.349-5.967-2.835-12.747-.765-18.858 2.069-6.068 6.777-11.339 12.825-13.477 6.048-2.137 13.307-.933 17.951 3.512 2.944 2.863 5.345 5.424 6.004 9.094z" fill="#F8AE9D"/><path d="M672.89 161.636c6.028-.673 11.52 2.279 15.593 6.854 3.426 3.836 5.44 8.9 5.339 13.987-.015.726-.097 1.518-.507 2.171-1.088 1.564-3.456.988-5.227.292-2.886-1.115-5.034-2.744-7.65-4.119-2.617-1.374-5.793-1.173-8.135-3.07-2.21-1.829-9.8-5.682-10.005-8.66-.258-3.64 6.411-6.614 9.199-7.219.399-.124.863-.181 1.393-.236z" fill="#374A8F"/><path d="M655.523 169.876c-5.097 3.287-7.489 9.046-7.754 15.166-.232 5.138 1.406 10.335 4.699 14.214.471.554 1.034 1.115 1.764 1.363 1.833.524 3.304-1.418 4.236-3.077 1.532-2.688 2.168-5.308 3.328-8.026 1.159-2.718 3.748-4.57 4.364-7.52.558-2.814 4.007-10.596 2.284-13.034-2.101-2.985-9.148-1.075-11.692.217-.387.156-.783.405-1.229.697z" fill="#374A8F"/><path d="M700.862 239.253c.805-.366 1.769-.099 2.304.624 6.014 8.421 8.336 18.973 10.369 29.142 2.306 11.561 4.36 23.161 6.329 34.759.117.591.192 1.223-.069 1.766-.261.543-.854.829-1.404 1.073-3.475 1.672-6.992 3.301-10.467 4.973a115.51 115.51 0 0 1-8.05-26.667c-2.231 5.645-6.26 10.548-11.399 13.751 3.829 5.485 8.542 16.452 13.139 21.276.703.767 5.054-.428 6.027-.75.604 1.734-2.228-.118-2.213 1.649-2.614.381-5.956-1.184-8.643-1.52a44.585 44.585 0 0 0-9.758-.064c-5.394.591-10.636 2.279-15.428 4.814a54.973 54.973 0 0 0-6.839 4.313c-1.872 1.402-6.507 4.697-6.507 4.697-.34.247-1.934-.114-2.311-.203a41.935 41.935 0 0 0-3.317-.429 79.04 79.04 0 0 1-8.312-1.094c-5.496-1.009-10.899-2.564-16.083-4.704-.499-.386 1.282-4.061 1.377-4.774-.094.671-10.304-.157-11.311-.34-4.026-.819-8.1-1.259-12.125-2.12 1.802-16.21 6.752-31.868 11.615-47.402 1.902-6.112 3.846-12.225 6.541-17.989 2.87-6.14 6.575-11.889 11.028-16.996.128-.124.34-.205.507-.161 2.137.538 15.169 3.891 21.653 6.303 3.304 1.27 6.652 2.415 10.042 3.56 1.34.441 2.721.883 4.11.862.926-.028 1.854-.225 2.741-.422 9.033-2.008 18.068-4.184 26.454-7.927z" fill="#6E8AEF"/><path d="M642.068 271.551c-.371 2.308-.87 4.656-1.368 6.962a122.654 122.654 0 0 1-4.651 15.411c-.963 2.509-1.968 4.976-3.1 7.44a141.107 141.107 0 0 1-1.737 3.634c-.304.584-.608 1.211-.911 1.795-.26.501-.562.959-.821 1.418 1.81-.057 10.742.458 12.59.613" stroke="#fff" stroke-width="1.376" stroke-miterlimit="10" stroke-linecap="round"/><path d="M642.359 310.636a51.958 51.958 0 0 1-.684 3.523l-.811 3.522c-.268 1.005-.876 2.258-.892 3.309.003-.21 7.164-.816 7.838-.89 7.457-.728 14.952-1.161 22.405-1.637 4.842-.305 9.594-.191 14.431-.159 1.43.021 3.115-.121 3.89-1.288.646-.999.119-2.269.638-3.187.335.089 4.232 1.074 4.191.989.155.886.463 2.742 1.382 3.176.335.131.671.179 1.007.184.505.007 1.011-.069 1.517-.145a.322.322 0 0 0 .211-.081c.086-.083.004-.211-.079-.338a10.027 10.027 0 0 1-1.721-5.747c-1.208-.818-2.413-1.762-3.45-2.787-.828-.854-1.442-1.957-2.357-2.686-.955-.814-1.888-.323-2.944-.045a51.441 51.441 0 0 0-3.632.954c-2.325.722-4.652 1.612-6.609 3.055-.68.495-1.32 1.032-2.122 1.272-.761.241-1.602.228-2.402.216-4.92-.117-9.838-.36-14.71-.897-4.997-.538-8.406-.464-14.954-1.447 0 .042-.006.421-.143 1.134z" fill="#F8AE9D"/><path d="M696.542 271.084c1.176 5.085 2.025 10.219 2.599 15.458" stroke="#fff" stroke-width="1.376" stroke-miterlimit="10" stroke-linecap="round"/><path d="m795.746 262.696-14.44 64.396-109.644-1.666c.057-3.785 3.174-6.851 7.002-6.793l26.202.398 13.057-59.242a4.138 4.138 0 0 1 4.088-3.262l69.732 1.06c2.649.082 4.589 2.509 4.003 5.109z" fill="#374A8F"/><path d="M652.514 420.039c.507-2.937 1.941-5.944 3.285-8.574 5.549-10.769 15.466-18.359 26.146-23.581 1.102-.53 2.203-1.06 3.345-1.464a3.62 3.62 0 0 0-.258.417l-.001.042h-.042c.127-.083.213-.165.34-.248 4.316 3.894 8.921 8.171 12.852 12.479-2.598 2.106-6.368 3.816-8.241 5.218-4.424 3.256-8.684 6.725-13.273 9.768-6.163 4.155-12.729 7.168-20.069 8.487-2.826.504-4.306 1.029-4.273-1.158.047-.336.096-.798.189-1.386z" fill="#F8AE9D"/><path d="M659.67 411.566c2.858-5.383 7.296-9.48 12.147-13.109 3.404-2.556 7.014-4.857 10.457-7.203.978-.658 2.898-2.438 4.552-3.296 3.444 3.123 6.97 6.416 10.157 9.83-10.53 6.402-19.912 14.758-31.465 19.294-1.058.404-2.158.808-3.294.833-1.136.025-2.349-.456-3.008-1.392-1.029-1.446-.368-3.413.454-4.957z" fill="#F8AE9D"/><path d="M568.215 289.952c-5.685 3.914-14.367 1.175-14.367 1.175s.539-9.082 6.228-12.992c5.684-3.914 14.363-1.179 14.363-1.179s-.54 9.083-6.224 12.996z" fill="url(#b)"/><path d="M804.594 447.759c6.445-4.413 7.082-14.698 7.082-14.698s-9.813-3.122-16.255 1.297c-6.445 4.414-7.084 14.693-7.084 14.693s9.813 3.122 16.257-1.292z" fill="url(#c)"/><path d="M83.442 319.491c10.323 10.507 29.626 8.291 29.626 8.291s2.554-19.249-7.778-29.749c-10.322-10.506-29.616-8.297-29.616-8.297s-2.554 19.249 7.768 29.755z" fill="url(#d)"/><circle r="16.215" transform="matrix(-1 0 0 1 190.359 232.834)" fill="#6E8AEF"/><circle r="8.765" transform="matrix(-1 0 0 1 127.318 470.363)" fill="#fff"/><circle r="7.03" transform="matrix(-1 0 0 1 315.339 264.593)" fill="#E1E4E5"/><circle r="4.5" transform="matrix(-1 0 0 1 683.312 75.5)" fill="#E1E4E5"/><circle r="7.019" transform="scale(1 -1) rotate(-75 -230.844 -290.6)" fill="#fff"/><circle r="9.337" transform="matrix(-1 0 0 1 432.816 140.761)" fill="#E1E4E5"/><ellipse rx="7.183" ry="5.746" transform="matrix(-1 0 0 1 334.14 476.099)" fill="#fff"/><ellipse rx="11.691" ry="9.229" transform="scale(-1 1) rotate(26.006 -1495.698 -1504.143)" fill="#fff"/><circle transform="matrix(0 1 1 0 613.313 154.5)" fill="#E1E4E5" r="7.5"/><path d="M812.534 225.754h.188c1.113 15.765 12.837 16.007 12.837 16.007s-12.928.253-12.928 18.469c0-18.216-12.929-18.469-12.929-18.469s11.72-.242 12.832-16.007zM549.288 119.358h.188c1.113 15.765 12.837 16.008 12.837 16.008s-12.928.253-12.928 18.469c0-18.216-12.929-18.469-12.929-18.469s11.72-.243 12.832-16.008zM349.373 93.034h.135c.803 11.536 9.258 11.713 9.258 11.713s-9.324.185-9.324 13.514c0-13.329-9.323-13.514-9.323-13.514s8.451-.177 9.254-11.713zM109.254 184h.135c.803 11.536 9.257 11.714 9.257 11.714s-9.323.184-9.323 13.514c0-13.33-9.323-13.514-9.323-13.514s8.451-.178 9.254-11.714z" fill="#E1E4E5"/></g><defs><linearGradient id="b" x1="546.072" y1="302.793" x2="590.823" y2="255.625" gradientUnits="userSpaceOnUse"><stop stop-color="#fff"/><stop offset="1" stop-color="#EEE"/></linearGradient><linearGradient id="c" x1="827.158" y1="429.59" x2="759.146" y2="457.685" gradientUnits="userSpaceOnUse"><stop stop-color="#fff"/><stop offset="1" stop-color="#EEE"/></linearGradient><linearGradient id="d" x1="124.628" y1="355.378" x2="50.001" y2="238.395" gradientUnits="userSpaceOnUse"><stop stop-color="#fff"/><stop offset="1" stop-color="#EEE"/></linearGradient><clipPath id="a"><path fill="#fff" d="M0 0h900v600H0z"/></clipPath></defs></svg>