<svg width="430" height="134" fill="none" xmlns="http://www.w3.org/2000/svg"><path
    d="M177.007 104.258c-.629 0-1.195-.219-1.698-.658-.441-.5-.661-1.064-.661-1.69V53.276H157.85c-.629 0-1.195-.22-1.699-.658-.44-.5-.66-1.064-.66-1.69V40.882c0-.688.22-1.252.66-1.69.504-.438 1.07-.657 1.699-.657h50.772c.692 0 1.258.22 1.699.657.44.438.66 1.002.66 1.69v10.046c0 .689-.22 1.252-.66 1.69-.441.439-1.007.658-1.699.658h-16.798v48.634c0 .626-.22 1.19-.661 1.69-.44.439-1.006.658-1.698.658h-12.458Zm32.049 0c-.504 0-.976-.188-1.416-.564-.377-.438-.566-.907-.566-1.408 0-.376.031-.657.094-.845l22.178-60.277a3.406 3.406 0 0 1 1.226-1.878c.629-.5 1.447-.751 2.454-.751h13.967c1.007 0 1.825.25 2.454.751a3.413 3.413 0 0 1 1.227 1.878l22.083 60.277.188.845c0 .501-.22.97-.66 1.408-.378.376-.85.564-1.416.564h-11.608c-1.51 0-2.516-.658-3.02-1.972l-3.68-9.577h-25.197l-3.586 9.577c-.504 1.314-1.542 1.972-3.115 1.972h-11.607Zm39.73-25.069-8.776-24.787-8.777 24.787h17.553Zm57.868 26.008c-8.87 0-15.823-2.16-20.856-6.479-4.97-4.319-7.455-10.828-7.455-19.529V40.882c0-.688.22-1.252.661-1.69.503-.438 1.069-.657 1.698-.657h12.174c.692 0 1.258.22 1.699.657.503.438.755 1.002.755 1.69v38.213c0 4.069.944 7.136 2.831 9.201 1.95 2.003 4.75 3.005 8.399 3.005 3.586 0 6.354-1.033 8.305-3.098 1.95-2.066 2.925-5.102 2.925-9.108V40.882c0-.688.221-1.252.661-1.69.503-.438 1.069-.657 1.699-.657h12.268c.692 0 1.258.22 1.699.657.44.438.66 1.002.66 1.69V79.19c0 8.7-2.516 15.21-7.549 19.53-4.971 4.318-11.828 6.478-20.574 6.478Zm42.997-.939c-.629 0-1.195-.219-1.699-.658-.44-.5-.66-1.064-.66-1.69V40.882c0-.688.22-1.252.66-1.69.504-.438 1.07-.657 1.699-.657h25.669c8.242 0 14.659 1.878 19.252 5.633 4.656 3.693 6.984 8.951 6.984 15.774 0 4.381-1.038 8.106-3.115 11.173-2.076 3.067-4.938 5.414-8.587 7.041l12.928 23.097c.189.376.284.72.284 1.033 0 .501-.221.97-.661 1.408-.377.376-.818.564-1.321.564h-12.552c-1.824 0-3.114-.845-3.869-2.535l-10.758-20.656h-9.626v20.843c0 .689-.252 1.252-.755 1.69-.441.439-1.007.658-1.699.658h-12.174Zm25.481-36.523c2.894 0 5.096-.689 6.606-2.066 1.51-1.44 2.265-3.411 2.265-5.915s-.755-4.475-2.265-5.915c-1.447-1.502-3.649-2.253-6.606-2.253h-10.853v16.149h10.853Zm39.768 36.523c-.629 0-1.195-.219-1.698-.658-.441-.5-.661-1.064-.661-1.69V40.882c0-.688.22-1.252.661-1.69.503-.438 1.069-.657 1.698-.657h12.646c.692 0 1.259.22 1.699.657.503.438.755 1.002.755 1.69v61.028c0 .689-.252 1.252-.755 1.69-.44.439-1.007.658-1.699.658H414.9ZM82.875 48.385c0 6.998-5.703 12.672-12.737 12.672-7.035 0-12.738-5.674-12.738-12.672 0-6.999 5.703-12.672 12.738-12.672 7.034 0 12.737 5.673 12.737 12.672Z"
    fill="#2F2F2F"
  /><ellipse
    cx="48.716"
    cy="84.673"
    rx="12.737"
    ry="12.672"
    transform="rotate(180 48.716 84.673)"
    fill="#2F2F2F"
  /><path
    fill-rule="evenodd"
    clip-rule="evenodd"
    d="M96.536 89.021a48.773 48.773 0 0 1-16.779 6.793 33.78 33.78 0 0 0 1.878-11.14c0-1.416-.087-2.811-.256-4.181a34.241 34.241 0 0 0 7.309-3.553 34.05 34.05 0 0 0 12.609-14.59 33.843 33.843 0 0 0 2.629-19.064 33.922 33.922 0 0 0-8.192-17.43 34.2 34.2 0 0 0-16.39-10.215 34.343 34.343 0 0 0-19.34.273A34.186 34.186 0 0 0 42.367 28.57a56.962 56.962 0 0 0-18.65 5.389 48.31 48.31 0 0 1 9.098-16.596A48.649 48.649 0 0 1 55.717 2.176a48.873 48.873 0 0 1 27.52-.388 48.67 48.67 0 0 1 23.326 14.537 48.28 48.28 0 0 1 11.658 24.804 48.163 48.163 0 0 1-3.741 27.129A48.46 48.46 0 0 1 96.536 89.02Zm-72.24-46.238 11.922 1.457a33.856 33.856 0 0 1 1.539-6.726 48.79 48.79 0 0 0-13.462 5.27Z"
    fill="#2F2F2F"
  /><path
    fill-rule="evenodd"
    clip-rule="evenodd"
    d="M22.235 44.037a48.773 48.773 0 0 1 16.913-6.82 33.761 33.761 0 0 0-2.094 11.744c0 1.234.066 2.454.195 3.654a34.246 34.246 0 0 0-7.166 3.503 34.05 34.05 0 0 0-12.609 14.59 33.842 33.842 0 0 0-2.63 19.064 33.924 33.924 0 0 0 8.194 17.43 34.202 34.202 0 0 0 16.39 10.215 34.345 34.345 0 0 0 19.339-.272 34.19 34.19 0 0 0 17.645-12.667 56.948 56.948 0 0 0 18.658-5.426 48.315 48.315 0 0 1-9.114 16.643 48.648 48.648 0 0 1-22.902 15.187 48.871 48.871 0 0 1-27.52.388 48.67 48.67 0 0 1-23.325-14.537A48.275 48.275 0 0 1 .549 91.929 48.161 48.161 0 0 1 4.293 64.8a48.455 48.455 0 0 1 17.943-20.763Z"
    fill="#2F2F2F"
  /></svg>
